<?xml version="1.0" encoding="UTF-8"?>
<svg id="Ebene_1" data-name="Ebene 1" xmlns="http://www.w3.org/2000/svg" viewBox="0 0 464.73 114.32">
  <defs>
    <style>
      .cls-1 {
        fill: #231f20;
      }

      .cls-2 {
        fill-rule: evenodd;
      }
    </style>
  </defs>
  <path class="cls-2" d="M65.23,58.58c-4.34,0-6.99-4.04-6.99-7.74s2.65-7.68,6.99-7.68,7.05,3.98,7.05,7.68-2.71,7.74-7.05,7.74M79.75,37.09h-8.31v2.58c-2.05-2.24-5.18-3.48-8.26-3.48-8.5,0-13.5,7.24-13.5,14.53s4.94,14.81,13.62,14.81c3.08,0,6.21-1.23,8.02-3.42h.12v2.52h8.31v-27.55Z"/>
  <path d="M96.76,59.37c4.7,0,8.5-3.81,8.5-8.51s-3.81-8.5-8.5-8.5-8.51,3.81-8.51,8.5,3.81,8.51,8.51,8.51"/>
  <g>
    <path d="M121.82,39.59h.12c1.75-2.47,4.72-3.43,7.74-3.43,7.98,0,10.28,5.22,10.28,11.63v16.85h-8.47v-14.6c0-3.31.18-7.58-4.6-7.58-5.02,0-5.08,5.22-5.08,8.54v13.65h-8.47v-27.58h8.47v2.53Z"/>
    <path d="M154.43,52.12c0,3.48,1.45,7.41,5.87,7.41,2.78,0,4.54-1.57,5.69-3.76l7.8,1.18c-2.06,5.5-7.26,8.59-13.49,8.59-9.19,0-14.82-6.07-14.82-14.44s4.78-14.94,14.39-14.94,14.09,6.68,14.09,15v.96h-19.54ZM165.99,47.23c-.42-2.81-2.36-5.56-5.62-5.56s-5.26,2.7-5.69,5.56h11.31Z"/>
    <path d="M190.02,52.96l7.26-16.8h4.05l7.32,17.02,6.29-16.12h9.19l-13.79,28.14h-4.29l-6.35-16.8-7.08,16.8h-4.35l-13.67-28.14h9.25l6.17,15.9Z"/>
    <path d="M242.01,43.58c-1.21-1.07-2.78-1.91-4.48-1.91-1.39,0-2.78,1.01-2.78,2.36,0,2.02,3.08,2.58,6.11,3.82,3.08,1.24,6.11,3.15,6.11,7.92,0,6.12-5.32,9.77-11.55,9.77-3.99,0-7.86-1.68-10.46-4.61l3.87-4.66c1.63,1.69,3.81,3.2,6.29,3.2,1.87,0,3.39-1.18,3.39-2.98,0-2.42-2.96-2.98-5.93-4.16-2.96-1.18-5.93-2.81-5.93-7.25,0-5.17,3.87-8.93,9.43-8.93,3.15,0,7.14.9,9.56,2.86l-3.63,4.55Z"/>
    <path d="M297.35,64.64h-8.35v-2.53h-.12c-1.81,2.19-4.96,3.43-8.04,3.43-8.71,0-13.67-7.36-13.67-14.83s5.02-14.55,13.55-14.55c3.08,0,6.23,1.24,8.29,3.48v-2.58h8.35v27.58ZM289.85,50.82c0-3.71-2.72-7.7-7.08-7.7s-7.02,3.99-7.02,7.7,2.66,7.75,7.02,7.75,7.08-4.04,7.08-7.75Z"/>
    <path d="M313.13,47.17h.12l8.89-10.11h11.01l-12.52,12.13,13.49,15.45h-11.13l-9.74-11.74h-.12v11.74h-8.47V17.01h8.47v30.16Z"/>
    <path d="M348.03,64.64h-8.47v-20.95h-2.9v-6.63h2.9v-9.32h8.47v9.32h5.2v6.63h-5.2v20.95Z"/>
    <path d="M365.51,37.06v14.94c0,3.15.54,6.91,4.84,6.91s4.84-3.76,4.84-6.91v-14.94h8.47v16.23c0,8.03-4.48,12.25-13.31,12.25s-13.31-4.21-13.31-12.25v-16.23h8.47Z"/>
    <path d="M398.06,52.12c0,3.48,1.45,7.41,5.87,7.41,2.78,0,4.54-1.57,5.68-3.76l7.8,1.18c-2.06,5.5-7.26,8.59-13.49,8.59-9.19,0-14.82-6.07-14.82-14.44s4.78-14.94,14.39-14.94,14.09,6.68,14.09,15v.96h-19.54ZM409.61,47.23c-.42-2.81-2.36-5.56-5.62-5.56s-5.26,2.7-5.69,5.56h11.31Z"/>
    <path d="M431.85,64.64h-8.47V17.01h8.47v47.63Z"/>
    <path d="M447.72,64.64h-8.47V17.01h8.47v47.63Z"/>
  </g>
  <path d="M25.48,39.59h.12c1.75-2.47,4.72-3.43,7.74-3.43,7.98,0,10.28,5.22,10.28,11.63v16.85h-8.47v-14.6c0-3.31.18-7.58-4.6-7.58-5.02,0-5.08,5.22-5.08,8.54v13.65h-8.47v-27.58h8.47v2.53Z"/>
  <g>
    <path class="cls-1" d="M21.19,94.21l-1.23,3.16h-3.08l5.84-15.38h2.26l5.68,15.38h-3.12l-1.15-3.16h-5.21ZM23.71,86.39h-.04l-1.65,5.44h3.56l-1.87-5.44Z"/>
    <path class="cls-1" d="M44.86,90.6c-.6-.6-1.19-.95-2.05-.95-1.57,0-2.46,1.47-2.46,2.9,0,1.53.97,2.8,2.56,2.8.75,0,1.45-.38,1.95-.93v2.68c-.76.42-1.55.6-2.41.6-2.88,0-4.93-2.36-4.93-5.17s2.13-5.23,5.07-5.23c.78,0,1.59.2,2.27.62v2.68Z"/>
    <path class="cls-1" d="M56.66,92.5c0,3.02-2.07,5.19-5.13,5.19s-5.13-2.17-5.13-5.19,2.09-5.21,5.13-5.21,5.13,2.17,5.13,5.21ZM49.23,92.5c0,1.31.87,2.72,2.3,2.72s2.31-1.41,2.31-2.72-.87-2.74-2.31-2.74-2.3,1.39-2.3,2.74Z"/>
    <path class="cls-1" d="M61.25,88.49h.04c.54-.77,1.49-1.19,2.38-1.19,1.21,0,2.17.5,2.8,1.53.6-.95,1.71-1.53,2.84-1.53,2.48,0,3.1,1.87,3.1,3.99v6.08h-2.78v-5.13c0-.95.06-2.72-1.31-2.72-1.51,0-1.49,2.05-1.49,3.06v4.79h-2.78v-4.95c0-.95.12-2.9-1.33-2.9-1.55,0-1.47,2.03-1.47,3.06v4.79h-2.78v-9.76h2.78v.87Z"/>
    <path class="cls-1" d="M77.68,88.51c.64-.75,1.67-1.21,2.7-1.21,2.76,0,4.45,2.58,4.45,5.15s-1.63,5.25-4.51,5.25c-.99,0-2.05-.44-2.6-1.23h-.04v6.12h-2.78v-14.96h2.78v.89ZM82.01,92.48c0-1.31-.87-2.72-2.31-2.72s-2.3,1.41-2.3,2.72.87,2.74,2.3,2.74,2.31-1.43,2.31-2.74Z"/>
    <path class="cls-1" d="M95.84,97.37h-2.74v-.89h-.04c-.6.78-1.63,1.21-2.64,1.21-2.86,0-4.49-2.6-4.49-5.25s1.65-5.15,4.45-5.15c1.01,0,2.05.44,2.72,1.23v-.91h2.74v9.76ZM93.38,92.48c0-1.31-.89-2.72-2.32-2.72s-2.3,1.41-2.3,2.72.87,2.74,2.3,2.74,2.32-1.43,2.32-2.74Z"/>
    <path class="cls-1" d="M101.13,88.51h.04c.58-.87,1.55-1.21,2.54-1.21,2.62,0,3.38,1.85,3.38,4.11v5.96h-2.78v-5.17c0-1.17.06-2.68-1.51-2.68-1.65,0-1.67,1.85-1.67,3.02v4.83h-2.78v-9.76h2.78v.89Z"/>
    <path class="cls-1" d="M108.22,87.62h3.16l2.32,5.54,2.5-5.54h3.1l-7.09,14.96h-3.06l3.22-6.7-4.15-8.27Z"/>
    <path class="cls-1" d="M136.22,92.5c0,3.02-2.07,5.19-5.13,5.19s-5.13-2.17-5.13-5.19,2.09-5.21,5.13-5.21,5.13,2.17,5.13,5.21ZM128.78,92.5c0,1.31.87,2.72,2.31,2.72s2.3-1.41,2.3-2.72-.87-2.74-2.3-2.74-2.31,1.39-2.31,2.74Z"/>
    <path class="cls-1" d="M140.9,97.37h-2.78v-7.41h-.93v-2.35h.93v-2.86c0-2.38.99-4.47,3.68-4.47.46,0,.91.1,1.33.32v2.48c-.36-.18-.72-.34-1.13-.34-1.23,0-1.09,1.61-1.09,2.4v2.46h2.23v2.35h-2.23v7.41Z"/>
    <path class="cls-1" d="M153.9,97.37h-2.78v-7.41h-.95v-2.35h.95v-3.3h2.78v3.3h1.71v2.35h-1.71v7.41Z"/>
    <path class="cls-1" d="M159.5,80.52v7.91h.04c.58-.79,1.55-1.13,2.54-1.13,2.62,0,3.38,1.85,3.38,4.11v5.96h-2.78v-5.17c0-1.17.06-2.68-1.51-2.68-1.65,0-1.67,1.85-1.67,3.02v4.83h-2.78v-16.85h2.78Z"/>
    <path class="cls-1" d="M170.19,92.94c0,1.23.48,2.62,1.93,2.62.91,0,1.49-.56,1.87-1.33l2.56.42c-.68,1.95-2.38,3.04-4.43,3.04-3.02,0-4.87-2.15-4.87-5.11s1.57-5.28,4.73-5.28,4.63,2.36,4.63,5.31v.34h-6.42ZM173.99,91.21c-.14-.99-.78-1.97-1.85-1.97s-1.73.95-1.87,1.97h3.72Z"/>
    <path class="cls-1" d="M191.09,96.46h-.04c-.58.79-1.61,1.23-2.62,1.23-2.86,0-4.49-2.6-4.49-5.25s1.65-5.15,4.45-5.15c1.01,0,2.05.44,2.66,1.21h.04v-7.99h2.78v16.85h-2.78v-.91ZM191.37,92.48c0-1.31-.87-2.72-2.3-2.72s-2.31,1.41-2.31,2.72.87,2.74,2.31,2.74,2.3-1.43,2.3-2.74Z"/>
    <path class="cls-1" d="M199.14,88.51c.64-.75,1.67-1.21,2.7-1.21,2.76,0,4.45,2.58,4.45,5.15s-1.63,5.25-4.51,5.25c-.99,0-2.05-.44-2.6-1.23h-.04v6.12h-2.78v-14.96h2.78v.89ZM203.47,92.48c0-1.31-.88-2.72-2.31-2.72s-2.31,1.41-2.31,2.72.87,2.74,2.31,2.74,2.31-1.43,2.31-2.74Z"/>
    <path class="cls-1" d="M217.5,97.37h-2.74v-.89h-.04c-.6.78-1.63,1.21-2.64,1.21-2.86,0-4.49-2.6-4.49-5.25s1.65-5.15,4.45-5.15c1.01,0,2.05.44,2.72,1.23v-.91h2.74v9.76ZM215.04,92.48c0-1.31-.89-2.72-2.32-2.72s-2.3,1.41-2.3,2.72.87,2.74,2.3,2.74,2.32-1.43,2.32-2.74Z"/>
    <path class="cls-1" d="M239.56,89.41v.38c0,4.23-2.17,7.99-6.81,7.99-4.37,0-7.13-3.7-7.13-7.83s2.84-7.95,7.31-7.95c2.54,0,4.77,1.29,5.92,3.58l-2.58,1.39c-.6-1.35-1.87-2.38-3.42-2.38-2.82,0-4.21,2.88-4.21,5.36s1.41,5.25,4.23,5.25c1.83,0,3.36-1.59,3.42-3.4h-3.18v-2.38h6.46Z"/>
    <path class="cls-1" d="M244.21,88.63h.04c.56-.85,1.39-1.33,2.42-1.33.4,0,.79.1,1.15.24l-.34,2.58c-.34-.24-.74-.36-1.15-.36-1.93,0-2.13,1.71-2.13,3.22v4.39h-2.78v-9.76h2.78v1.01Z"/>
    <path class="cls-1" d="M258.79,92.5c0,3.02-2.07,5.19-5.13,5.19s-5.13-2.17-5.13-5.19,2.09-5.21,5.13-5.21,5.13,2.17,5.13,5.21ZM251.36,92.5c0,1.31.87,2.72,2.31,2.72s2.3-1.41,2.3-2.72-.87-2.74-2.3-2.74-2.31,1.39-2.31,2.74Z"/>
    <path class="cls-1" d="M263.32,87.62v5.29c0,1.11.18,2.44,1.59,2.44s1.59-1.33,1.59-2.44v-5.29h2.78v5.74c0,2.84-1.47,4.33-4.37,4.33s-4.37-1.49-4.37-4.33v-5.74h2.78Z"/>
    <path class="cls-1" d="M274.51,88.51c.64-.75,1.67-1.21,2.7-1.21,2.76,0,4.45,2.58,4.45,5.15s-1.63,5.25-4.51,5.25c-.99,0-2.05-.44-2.6-1.23h-.04v6.12h-2.78v-14.96h2.78v.89ZM278.84,92.48c0-1.31-.88-2.72-2.31-2.72s-2.31,1.41-2.31,2.72.87,2.74,2.31,2.74,2.31-1.43,2.31-2.74Z"/>
  </g>
</svg>