<svg width="1023" height="702" viewBox="0 0 1023 702" fill="none" xmlns="http://www.w3.org/2000/svg">
<path d="M1017.73 605.082L1022.04 622.873C1022.09 623.071 1022.08 623.279 1022.02 623.473L1002.45 684.614C1002.38 684.856 1002.22 685.064 1002.01 685.203C1001.79 685.343 1001.54 685.405 1001.29 685.38C1001.03 685.355 1000.8 685.245 1000.62 685.066C1000.44 684.888 1000.32 684.653 1000.29 684.401L997.585 660.584C997.567 660.426 997.584 660.266 997.633 660.114L1015.59 605C1015.66 604.77 1015.81 604.571 1016.01 604.433C1016.21 604.295 1016.45 604.225 1016.69 604.235C1016.93 604.244 1017.16 604.332 1017.35 604.485C1017.54 604.638 1017.67 604.848 1017.73 605.083L1017.73 605.082Z" fill="#2F2E41"/>
<path d="M1016.14 606.583L1020.12 621.847L1002.87 677.597L998.885 660.342L1016.14 606.583Z" fill="#1856F5"/>
<path d="M929.198 689.545C929.862 691.536 998.222 688.881 998.885 688.218C999.464 687.386 999.953 686.497 1000.35 685.563C1000.97 684.236 1001.54 682.908 1001.54 682.908L998.885 661.418L931.189 659.016C931.189 659.016 929.497 677.227 929.152 685.563C929.034 686.889 929.05 688.222 929.198 689.545Z" fill="#2F2E41"/>
<path opacity="0.1" d="M990.258 664.323L991.584 682.906H961.719V664.323H990.258Z" fill="black"/>
<path opacity="0.1" d="M951.762 670.296L951.941 670.261L951.099 678.26H934.507V670.296H951.762Z" fill="black"/>
<path opacity="0.1" d="M929.198 689.545C929.862 691.537 998.222 688.882 998.885 688.218C999.464 687.387 999.953 686.497 1000.35 685.563H929.152C929.034 686.889 929.05 688.223 929.198 689.545Z" fill="black"/>
<path d="M823.672 619.859H842.255L888.049 601.94C888.049 601.94 920.57 588.666 917.915 613.886C915.26 639.106 910.615 672.955 910.615 672.955C910.615 672.955 896.013 666.318 888.049 668.309C880.085 670.3 885.393 627.822 885.393 627.822C885.393 627.822 820.352 659.015 814.379 655.033C808.405 651.051 807.078 623.176 807.078 623.176L823.672 619.859Z" fill="#090814"/>
<path d="M852.949 561.662L875.439 593.974L927.87 637.778C927.87 637.778 969.061 651.912 962.423 659.877C955.785 667.841 922.559 649.06 922.559 649.06C922.559 649.06 862.165 605.257 860.176 601.939C858.187 598.62 836.284 567.427 836.284 567.427L852.949 561.662Z" fill="#ED9DA0"/>
<path opacity="0.058" d="M852.949 561.662L875.439 593.974L927.87 637.778C927.87 637.778 971.078 653.897 964.441 661.861C957.805 669.826 922.561 649.06 922.561 649.06C922.561 649.06 862.165 605.257 860.176 601.939C858.187 598.62 836.284 567.427 836.284 567.427L852.949 561.662Z" fill="black"/>
<path d="M847.565 522.96C847.565 522.96 837.61 540.215 835.619 549.507C833.628 558.799 805.753 530.924 805.753 530.924L802.103 521.3C802.103 521.3 828.318 509.022 826.328 499.067C824.337 489.111 847.565 522.96 847.565 522.96Z" fill="#ED9DA0"/>
<path d="M849.555 526.278C866.05 526.278 879.421 512.907 879.421 496.412C879.421 479.918 866.05 466.546 849.555 466.546C833.061 466.546 819.689 479.918 819.689 496.412C819.689 512.907 833.061 526.278 849.555 526.278Z" fill="#ED9DA0"/>
<path d="M852.873 574.728L880.084 610.566L945.125 659.016C945.125 659.016 980.813 668.001 970.194 675.301C959.575 682.602 940.48 669.635 940.48 669.635C940.48 669.635 874.775 634.459 860.837 619.858C846.899 605.257 821.016 580.701 821.016 580.701L852.873 574.728Z" fill="#ED9DA0"/>
<path d="M816.371 630.477L824.336 643.088L871.867 628.134C877.016 626.47 882.465 625.944 887.838 626.592C893.21 627.24 898.377 629.047 902.983 631.888C911.279 637.114 916.589 645.411 904.642 657.689C880.75 682.245 864.821 668.971 864.821 668.971C864.821 668.971 784.515 706.801 771.241 688.218C757.966 669.635 757.303 660.343 757.303 660.343C757.303 660.343 808.407 628.486 816.371 630.477Z" fill="#2F2E41"/>
<path d="M915.924 674.281C915.924 674.281 937.162 688.218 911.942 694.855C886.722 701.492 868.139 692.201 868.139 692.201C868.139 692.201 846.237 692.201 846.237 680.918C846.237 669.635 853.538 668.308 853.538 668.308L876.103 671.626C876.103 671.626 903.314 664.325 915.924 674.281Z" fill="#D6D6E3"/>
<path d="M839.6 535.569L854.201 564.107C854.201 564.107 850.883 578.045 845.573 579.372C840.264 580.699 817.698 562.117 817.698 562.117L839.6 535.569Z" fill="#1856F5"/>
<path d="M799.731 518.152C801.074 517.794 802.489 517.797 803.831 518.163C808.091 519.306 817.642 522.334 819.689 526.942C822.344 532.915 831.636 542.206 831.636 542.206C831.636 542.206 844.246 554.816 841.591 563.445C838.936 572.073 828.981 582.03 828.981 582.03C828.981 582.03 831.636 623.178 818.362 633.797C805.089 644.416 799.779 637.115 799.779 647.071C799.779 657.026 758.629 688.218 750.666 668.971C750.666 668.971 754.648 633.132 753.321 620.522C752.013 608.093 753.928 530.552 799.731 518.152Z" fill="#1856F5"/>
<path d="M821.016 534.905C821.016 534.905 861.501 564.771 854.201 577.381C854.201 577.381 829.644 589.327 824.335 588.664C819.026 588 798.451 564.772 793.142 562.78C787.833 560.788 785.177 524.95 821.016 534.905Z" fill="#1856F5"/>
<path d="M829.212 455.505C831.062 454.92 833.115 454.516 834.903 455.269C836.691 456.022 837.898 458.362 836.844 459.989C842.428 455.378 849.458 452.882 856.7 452.938C863.941 452.995 870.932 455.6 876.444 460.297C880.333 463.612 883.526 468.48 882.772 473.534C882.578 474.831 882.132 476.164 882.506 477.421C882.977 479.007 884.671 479.975 886.319 480.113L886.369 480.117C886.652 480.128 886.926 480.223 887.154 480.391C887.383 480.559 887.556 480.792 887.651 481.059C887.746 481.326 887.758 481.615 887.687 481.89C887.615 482.164 887.463 482.411 887.25 482.598L885.066 484.483C886.533 485.457 888.214 486.062 889.965 486.246C890.256 486.278 890.529 486.399 890.748 486.592C890.967 486.786 891.12 487.042 891.188 487.327C891.255 487.611 891.233 487.909 891.124 488.18C891.015 488.451 890.824 488.682 890.579 488.841C884.17 492.992 875.729 494.022 868.59 491.231C863.516 489.247 859.05 485.522 853.652 484.792C851.563 484.509 849.438 484.698 847.431 485.343C845.425 485.989 843.589 487.076 842.058 488.524C840.526 489.973 839.339 491.745 838.582 493.712C837.825 495.679 837.518 497.791 837.684 499.892C836.801 497.645 833.711 496.909 831.529 497.944C829.347 498.978 828.011 501.257 827.306 503.566C826.226 507.096 826.33 510.854 826.539 514.552C814.775 509.606 806.719 496.93 807.265 484.177C807.811 471.371 816.993 459.377 829.212 455.505Z" fill="#090814"/>
<path d="M453.636 48.6267C440.21 49.484 425.582 48.5768 410.021 48.6267V13.0562C423.733 15.1873 438.356 14.9685 453.636 13.0562V48.6267Z" fill="#E4E4E4"/>
<path d="M549.681 76.3629L551.778 73.1264C551.156 71.4109 550.438 69.7317 549.626 68.097L548.27 69.1907L549.344 67.5337C548.321 65.5222 547.515 64.2549 547.515 64.2549C544.931 68.4702 543.036 73.0698 541.903 77.8807L544.595 82.0338L541.615 79.6309C541.509 80.4472 541.454 81.2693 541.451 82.0925C541.451 90.3915 544.166 97.1193 547.515 97.1193C550.864 97.1193 553.579 90.3915 553.579 82.0925C553.516 79.4521 553.048 76.8369 552.192 74.338L549.681 76.3629Z" fill="#E4E4E4"/>
<path d="M564.529 83.5578L568.304 82.7501C569.08 81.0979 569.761 79.4033 570.345 77.6745L568.611 77.4904L570.544 77.0768C571.245 74.932 571.573 73.4673 571.573 73.4673C566.76 74.6237 562.163 76.5387 557.954 79.1402L556.916 83.9771L556.51 80.1744C555.857 80.6767 555.236 81.2195 554.651 81.7996C548.773 87.6679 545.928 94.3417 548.296 96.7059C550.664 99.0702 557.349 96.2295 563.227 90.3612C565.053 88.4498 566.574 86.2703 567.738 83.8986L564.529 83.5578Z" fill="#E4E4E4"/>
<path d="M565.908 115.671C557.153 116.23 547.613 115.639 537.465 115.671V92.4741C546.9 93.7935 556.473 93.7935 565.908 92.4741V115.671Z" fill="#E4E4E4"/>
<path d="M560.501 184.417C552.77 184.911 544.347 184.388 535.386 184.417V163.934C543.717 165.099 552.17 165.099 560.501 163.934V184.417Z" fill="#E4E4E4"/>
<path d="M604.614 46.125H266.652V55.5497H604.614V46.125Z" fill="#E4E4E4"/>
<path d="M604.614 113.041H266.652V122.465H604.614V113.041Z" fill="#E4E4E4"/>
<path d="M604.614 179.956H266.652V189.381H604.614V179.956Z" fill="#E6E6E6"/>
<path d="M547.972 171.474C558.4 171.474 566.853 163.035 566.853 152.624C566.853 142.214 558.4 133.775 547.972 133.775C537.545 133.775 529.092 142.214 529.092 152.624C529.092 163.035 537.545 171.474 547.972 171.474Z" fill="#E4E4E4"/>
<path d="M547.973 167.704C556.315 167.704 563.077 160.953 563.077 152.624C563.077 144.296 556.315 137.545 547.973 137.545C539.631 137.545 532.868 144.296 532.868 152.624C532.868 160.953 539.631 167.704 547.973 167.704Z" fill="white"/>
<path d="M547.972 156.394C550.058 156.394 551.749 154.706 551.749 152.624C551.749 150.542 550.058 148.854 547.972 148.854C545.887 148.854 544.196 150.542 544.196 152.624C544.196 154.706 545.887 156.394 547.972 156.394Z" fill="#E4E4E4"/>
<path d="M561.188 153.567V151.682H546.084V153.567H561.188Z" fill="#E4E4E4"/>
<path d="M547.028 154.509H548.916V139.43H547.028V154.509Z" fill="#E4E4E4"/>
<path d="M438.802 67.0635H426.31V116.431H438.802V67.0635Z" fill="#E4E4E4"/>
<path d="M438.802 74.8584H426.31V80.5746H438.802V74.8584Z" fill="#CCCCCC"/>
<path d="M438.802 99.8022H426.31V105.518H438.802V99.8022Z" fill="#CCCCCC"/>
<path d="M419.543 67.0635H407.051V116.431H419.543V67.0635Z" fill="#E4E4E4"/>
<path d="M419.543 74.8584H407.051V80.5746H419.543V74.8584Z" fill="#CCCCCC"/>
<path d="M419.543 99.8022H407.051V105.518H419.543V99.8022Z" fill="#CCCCCC"/>
<path d="M449.566 66.8595L438.37 72.3931L460.31 116.635L471.506 111.102L449.566 66.8595Z" fill="#E4E4E4"/>
<path d="M453.03 73.8453L441.835 79.3789L444.375 84.5017L455.571 78.9681L453.03 73.8453Z" fill="#CCCCCC"/>
<path d="M464.115 96.1988L452.92 101.732L455.46 106.855L466.656 101.322L464.115 96.1988Z" fill="#CCCCCC"/>
<path d="M327.407 133.979H314.915V183.347H327.407V133.979Z" fill="#E4E4E4"/>
<path d="M327.407 141.774H314.915V147.49H327.407V141.774Z" fill="#CCCCCC"/>
<path d="M327.407 166.718H314.915V172.434H327.407V166.718Z" fill="#CCCCCC"/>
<path d="M308.148 133.979H295.655V183.347H308.148V133.979Z" fill="#E4E4E4"/>
<path d="M308.148 141.774H295.655V147.49H308.148V141.774Z" fill="#CCCCCC"/>
<path d="M308.148 166.718H295.655V172.434H308.148V166.718Z" fill="#CCCCCC"/>
<path d="M338.171 133.775L326.976 139.309L348.916 183.551L360.111 178.017L338.171 133.775Z" fill="#E4E4E4"/>
<path d="M341.635 140.761L330.439 146.294L332.98 151.417L344.175 145.884L341.635 140.761Z" fill="#CCCCCC"/>
<path d="M352.721 163.115L341.525 168.648L344.066 173.771L355.261 168.238L352.721 163.115Z" fill="#CCCCCC"/>
<path d="M444.466 133.979H431.974V183.347H444.466V133.979Z" fill="#E4E4E4"/>
<path d="M444.466 141.774H431.974V147.49H444.466V141.774Z" fill="#CCCCCC"/>
<path d="M444.466 166.718H431.974V172.434H444.466V166.718Z" fill="#CCCCCC"/>
<path d="M425.207 133.979H412.715V183.347H425.207V133.979Z" fill="#E4E4E4"/>
<path d="M425.207 141.774H412.715V147.49H425.207V141.774Z" fill="#CCCCCC"/>
<path d="M425.207 166.718H412.715V172.434H425.207V166.718Z" fill="#CCCCCC"/>
<path d="M455.23 133.775L444.034 139.309L465.974 183.551L477.17 178.017L455.23 133.775Z" fill="#E4E4E4"/>
<path d="M458.694 140.761L447.499 146.294L450.039 151.417L461.235 145.884L458.694 140.761Z" fill="#CCCCCC"/>
<path d="M469.779 163.115L458.584 168.648L461.124 173.771L472.32 168.238L469.779 163.115Z" fill="#CCCCCC"/>
<path d="M578.182 0H528.531V49.5686H578.182V0Z" fill="#E4E4E4"/>
<path d="M568.251 9.91357H538.461V39.6547H568.251V9.91357Z" fill="#CCCCCC"/>
<path d="M547.084 19.8965L553.401 30.8189L559.718 41.7413H547.084H534.451L540.768 30.8189L547.084 19.8965Z" fill="#E4E4E4"/>
<path d="M558.06 21.9839L564.377 32.9063L570.693 43.8287H558.06H545.427L551.744 32.9063L558.06 21.9839Z" fill="#E4E4E4"/>
<path d="M327.069 0H277.419V49.5686H327.069V0Z" fill="#E4E4E4"/>
<path d="M317.14 9.91357H287.35V39.6547H317.14V9.91357Z" fill="#CCCCCC"/>
<path d="M295.973 19.8965L302.289 30.8189L308.606 41.7413H295.973H283.34L289.656 30.8189L295.973 19.8965Z" fill="#E4E4E4"/>
<path d="M306.949 21.9839L313.265 32.9063L319.581 43.8287H306.949H294.315L300.632 32.9063L306.949 21.9839Z" fill="#E4E4E4"/>
<path d="M750.666 694.525C750.662 695.057 750.45 695.567 750.075 695.945C749.89 696.13 749.67 696.276 749.428 696.375C749.186 696.475 748.927 696.526 748.666 696.525H740.625C740.363 696.526 740.102 696.475 739.859 696.374C739.616 696.274 739.395 696.127 739.209 695.941C739.023 695.755 738.876 695.534 738.776 695.291C738.676 695.048 738.625 694.788 738.625 694.525V451.385C738.625 446.025 736.826 441.675 734.615 441.665H132.125C129.905 441.675 128.115 446.025 128.105 451.385V693.035C128.104 693.532 127.918 694.01 127.583 694.378C127.249 694.746 126.79 694.976 126.295 695.025C124.675 695.185 123.055 695.325 121.445 695.455C121.405 695.455 121.365 695.465 121.325 695.465C120.445 695.545 119.565 695.605 118.685 695.675H118.675C118.215 694.845 117.775 693.995 117.325 693.145C117.181 692.856 117.106 692.538 117.105 692.215V438.775C117.105 437.295 117.165 435.805 117.265 434.335C117.408 432.316 117.659 430.307 118.015 428.315C119.705 419.025 123.525 412.735 127.865 412.715H738.865C739.499 412.719 740.125 412.852 740.705 413.105C741.558 413.482 742.329 414.022 742.975 414.695C743.853 415.607 744.603 416.632 745.205 417.745C747.345 421.515 748.876 427.135 749.416 433.675C749.416 433.735 749.425 433.795 749.425 433.855C749.565 435.475 749.635 437.125 749.625 438.775L749.766 460.205L749.855 472.985L750.125 513.085L750.225 527.325L750.666 694.525Z" fill="#E6E6E6"/>
<path d="M803.841 699.006L528.091 699.314C527.775 699.313 527.473 699.187 527.251 698.964C527.028 698.741 526.903 698.438 526.903 698.123C526.903 697.808 527.028 697.505 527.251 697.282C527.473 697.059 527.775 696.933 528.091 696.932L803.841 696.625C804.156 696.626 804.458 696.752 804.68 696.975C804.903 697.198 805.028 697.5 805.028 697.816C805.028 698.131 804.903 698.433 804.68 698.656C804.458 698.88 804.156 699.005 803.841 699.006Z" fill="#CACACA"/>
<path d="M461.568 341.676H412.73C412.039 341.677 411.377 341.953 410.889 342.442C410.401 342.931 410.127 343.594 410.128 344.285V421.435H464.177V344.285C464.177 343.942 464.109 343.603 463.978 343.286C463.847 342.97 463.655 342.682 463.413 342.44C463.171 342.198 462.883 342.005 462.566 341.874C462.25 341.743 461.911 341.676 461.568 341.676ZM437.313 385.512C435.786 385.505 434.323 384.895 433.243 383.815C432.163 382.735 431.553 381.272 431.546 379.745V370.846C431.546 369.317 432.154 367.85 433.235 366.769C434.317 365.687 435.784 365.079 437.313 365.079C438.843 365.079 440.31 365.687 441.391 366.769C442.473 367.85 443.08 369.317 443.08 370.846V379.745C443.073 381.272 442.463 382.735 441.383 383.815C440.303 384.895 438.84 385.505 437.313 385.512Z" fill="#2F2E41"/>
<path d="M542.44 221.275H333.675C331.882 221.278 330.162 221.992 328.894 223.26C327.626 224.528 326.912 226.247 326.909 228.041V368.916C326.911 370.71 327.624 372.43 328.893 373.698C330.161 374.967 331.881 375.68 333.675 375.682H542.44C544.234 375.68 545.954 374.967 547.222 373.698C548.491 372.43 549.204 370.71 549.206 368.916V228.041C549.203 226.247 548.489 224.528 547.221 223.26C545.953 221.992 544.233 221.278 542.44 221.275Z" fill="#3F3D56"/>
<path d="M540.693 226.161H335.415C334.455 226.163 333.535 226.546 332.856 227.225C332.178 227.905 331.797 228.826 331.797 229.787V367.17C331.799 368.129 332.18 369.049 332.859 369.727C333.537 370.405 334.456 370.787 335.415 370.788H540.693C541.652 370.787 542.572 370.405 543.25 369.727C543.928 369.049 544.31 368.129 544.311 367.17V229.787C544.311 228.826 543.93 227.905 543.252 227.225C542.574 226.546 541.653 226.163 540.693 226.161Z" fill="white"/>
<path d="M409.96 418.967V426.411C409.961 426.796 410.114 427.166 410.387 427.439C410.66 427.712 411.029 427.865 411.415 427.866H462.889C463.274 427.864 463.643 427.71 463.916 427.438C464.188 427.165 464.342 426.796 464.344 426.411V418.967H409.96Z" fill="#3F3D56"/>
<path d="M500.712 430.456H378.584C378.249 430.456 377.919 430.381 377.617 430.237C377.316 430.094 377.05 429.884 376.839 429.625C376.628 429.365 376.478 429.062 376.4 428.737C376.321 428.412 376.316 428.074 376.385 427.746L378.28 418.746C378.388 418.243 378.665 417.791 379.065 417.467C379.464 417.142 379.963 416.964 380.478 416.962H498.818C499.333 416.964 499.832 417.142 500.231 417.467C500.631 417.791 500.908 418.243 501.016 418.746L502.911 427.746C502.98 428.074 502.975 428.412 502.896 428.737C502.818 429.062 502.668 429.365 502.457 429.625C502.246 429.884 501.98 430.094 501.679 430.237C501.377 430.381 501.047 430.456 500.712 430.456Z" fill="#2F2E41"/>
<path d="M384.618 418.583H381.833C381.563 418.583 381.345 418.802 381.345 419.071V420.352C381.345 420.621 381.563 420.84 381.833 420.84H384.618C384.888 420.84 385.106 420.621 385.106 420.352V419.071C385.106 418.802 384.888 418.583 384.618 418.583Z" fill="#3F3D56"/>
<path d="M392.141 418.583H389.356C389.087 418.583 388.868 418.802 388.868 419.071V420.352C388.868 420.621 389.087 420.84 389.356 420.84H392.141C392.411 420.84 392.63 420.621 392.63 420.352V419.071C392.63 418.802 392.411 418.583 392.141 418.583Z" fill="#3F3D56"/>
<path d="M399.664 418.583H396.879C396.609 418.583 396.391 418.802 396.391 419.071V420.352C396.391 420.621 396.609 420.84 396.879 420.84H399.664C399.934 420.84 400.152 420.621 400.152 420.352V419.071C400.152 418.802 399.934 418.583 399.664 418.583Z" fill="#3F3D56"/>
<path d="M407.187 418.583H404.402C404.133 418.583 403.914 418.802 403.914 419.071V420.352C403.914 420.621 404.133 420.84 404.402 420.84H407.187C407.457 420.84 407.676 420.621 407.676 420.352V419.071C407.676 418.802 407.457 418.583 407.187 418.583Z" fill="#3F3D56"/>
<path d="M414.71 418.583H411.925C411.655 418.583 411.437 418.802 411.437 419.071V420.352C411.437 420.621 411.655 420.84 411.925 420.84H414.71C414.979 420.84 415.198 420.621 415.198 420.352V419.071C415.198 418.802 414.979 418.583 414.71 418.583Z" fill="#3F3D56"/>
<path d="M422.233 418.583H419.448C419.179 418.583 418.96 418.802 418.96 419.071V420.352C418.96 420.621 419.179 420.84 419.448 420.84H422.233C422.503 420.84 422.721 420.621 422.721 420.352V419.071C422.721 418.802 422.503 418.583 422.233 418.583Z" fill="#3F3D56"/>
<path d="M429.756 418.583H426.971C426.701 418.583 426.482 418.802 426.482 419.071V420.352C426.482 420.621 426.701 420.84 426.971 420.84H429.756C430.025 420.84 430.244 420.621 430.244 420.352V419.071C430.244 418.802 430.025 418.583 429.756 418.583Z" fill="#3F3D56"/>
<path d="M437.279 418.583H434.494C434.224 418.583 434.006 418.802 434.006 419.071V420.352C434.006 420.621 434.224 420.84 434.494 420.84H437.279C437.549 420.84 437.767 420.621 437.767 420.352V419.071C437.767 418.802 437.549 418.583 437.279 418.583Z" fill="#3F3D56"/>
<path d="M444.802 418.583H442.017C441.747 418.583 441.528 418.802 441.528 419.071V420.352C441.528 420.621 441.747 420.84 442.017 420.84H444.802C445.071 420.84 445.29 420.621 445.29 420.352V419.071C445.29 418.802 445.071 418.583 444.802 418.583Z" fill="#3F3D56"/>
<path d="M452.324 418.583H449.539C449.269 418.583 449.051 418.802 449.051 419.071V420.352C449.051 420.621 449.269 420.84 449.539 420.84H452.324C452.594 420.84 452.812 420.621 452.812 420.352V419.071C452.812 418.802 452.594 418.583 452.324 418.583Z" fill="#3F3D56"/>
<path d="M459.847 418.583H457.062C456.793 418.583 456.574 418.802 456.574 419.071V420.352C456.574 420.621 456.793 420.84 457.062 420.84H459.847C460.117 420.84 460.336 420.621 460.336 420.352V419.071C460.336 418.802 460.117 418.583 459.847 418.583Z" fill="#3F3D56"/>
<path d="M467.37 418.583H464.585C464.315 418.583 464.097 418.802 464.097 419.071V420.352C464.097 420.621 464.315 420.84 464.585 420.84H467.37C467.64 420.84 467.858 420.621 467.858 420.352V419.071C467.858 418.802 467.64 418.583 467.37 418.583Z" fill="#3F3D56"/>
<path d="M474.893 418.583H472.108C471.839 418.583 471.62 418.802 471.62 419.071V420.352C471.62 420.621 471.839 420.84 472.108 420.84H474.893C475.163 420.84 475.382 420.621 475.382 420.352V419.071C475.382 418.802 475.163 418.583 474.893 418.583Z" fill="#3F3D56"/>
<path d="M482.416 418.583H479.631C479.361 418.583 479.143 418.802 479.143 419.071V420.352C479.143 420.621 479.361 420.84 479.631 420.84H482.416C482.685 420.84 482.904 420.621 482.904 420.352V419.071C482.904 418.802 482.685 418.583 482.416 418.583Z" fill="#3F3D56"/>
<path d="M489.939 418.583H487.154C486.885 418.583 486.666 418.802 486.666 419.071V420.352C486.666 420.621 486.885 420.84 487.154 420.84H489.939C490.209 420.84 490.427 420.621 490.427 420.352V419.071C490.427 418.802 490.209 418.583 489.939 418.583Z" fill="#3F3D56"/>
<path d="M497.462 418.583H494.677C494.407 418.583 494.188 418.802 494.188 419.071V420.352C494.188 420.621 494.407 420.84 494.677 420.84H497.462C497.731 420.84 497.95 420.621 497.95 420.352V419.071C497.95 418.802 497.731 418.583 497.462 418.583Z" fill="#3F3D56"/>
<path d="M384.529 422.344H381.744C381.474 422.344 381.256 422.563 381.256 422.832V424.113C381.256 424.383 381.474 424.601 381.744 424.601H384.529C384.799 424.601 385.017 424.383 385.017 424.113V422.832C385.017 422.563 384.799 422.344 384.529 422.344Z" fill="#3F3D56"/>
<path d="M392.053 422.344H389.267C388.998 422.344 388.779 422.563 388.779 422.832V424.113C388.779 424.383 388.998 424.601 389.267 424.601H392.053C392.322 424.601 392.541 424.383 392.541 424.113V422.832C392.541 422.563 392.322 422.344 392.053 422.344Z" fill="#3F3D56"/>
<path d="M399.575 422.344H396.79C396.52 422.344 396.302 422.563 396.302 422.832V424.113C396.302 424.383 396.52 424.601 396.79 424.601H399.575C399.845 424.601 400.063 424.383 400.063 424.113V422.832C400.063 422.563 399.845 422.344 399.575 422.344Z" fill="#3F3D56"/>
<path d="M407.098 422.344H404.313C404.044 422.344 403.825 422.563 403.825 422.832V424.113C403.825 424.383 404.044 424.601 404.313 424.601H407.098C407.368 424.601 407.587 424.383 407.587 424.113V422.832C407.587 422.563 407.368 422.344 407.098 422.344Z" fill="#3F3D56"/>
<path d="M414.621 422.344H411.836C411.566 422.344 411.348 422.563 411.348 422.832V424.113C411.348 424.383 411.566 424.601 411.836 424.601H414.621C414.891 424.601 415.109 424.383 415.109 424.113V422.832C415.109 422.563 414.891 422.344 414.621 422.344Z" fill="#3F3D56"/>
<path d="M422.144 422.344H419.359C419.09 422.344 418.871 422.563 418.871 422.832V424.113C418.871 424.383 419.09 424.601 419.359 424.601H422.144C422.414 424.601 422.633 424.383 422.633 424.113V422.832C422.633 422.563 422.414 422.344 422.144 422.344Z" fill="#3F3D56"/>
<path d="M429.667 422.344H426.882C426.612 422.344 426.394 422.563 426.394 422.832V424.113C426.394 424.383 426.612 424.601 426.882 424.601H429.667C429.936 424.601 430.155 424.383 430.155 424.113V422.832C430.155 422.563 429.936 422.344 429.667 422.344Z" fill="#3F3D56"/>
<path d="M437.19 422.344H434.405C434.136 422.344 433.917 422.563 433.917 422.832V424.113C433.917 424.383 434.136 424.601 434.405 424.601H437.19C437.46 424.601 437.678 424.383 437.678 424.113V422.832C437.678 422.563 437.46 422.344 437.19 422.344Z" fill="#3F3D56"/>
<path d="M444.713 422.344H441.928C441.658 422.344 441.439 422.563 441.439 422.832V424.113C441.439 424.383 441.658 424.601 441.928 424.601H444.713C444.982 424.601 445.201 424.383 445.201 424.113V422.832C445.201 422.563 444.982 422.344 444.713 422.344Z" fill="#3F3D56"/>
<path d="M452.235 422.344H449.45C449.18 422.344 448.962 422.563 448.962 422.832V424.113C448.962 424.383 449.18 424.601 449.45 424.601H452.235C452.505 424.601 452.723 424.383 452.723 424.113V422.832C452.723 422.563 452.505 422.344 452.235 422.344Z" fill="#3F3D56"/>
<path d="M459.759 422.344H456.974C456.704 422.344 456.485 422.563 456.485 422.832V424.113C456.485 424.383 456.704 424.601 456.974 424.601H459.759C460.028 424.601 460.247 424.383 460.247 424.113V422.832C460.247 422.563 460.028 422.344 459.759 422.344Z" fill="#3F3D56"/>
<path d="M467.281 422.344H464.496C464.226 422.344 464.008 422.563 464.008 422.832V424.113C464.008 424.383 464.226 424.601 464.496 424.601H467.281C467.551 424.601 467.769 424.383 467.769 424.113V422.832C467.769 422.563 467.551 422.344 467.281 422.344Z" fill="#3F3D56"/>
<path d="M474.805 422.344H472.019C471.75 422.344 471.531 422.563 471.531 422.832V424.113C471.531 424.383 471.75 424.601 472.019 424.601H474.805C475.074 424.601 475.293 424.383 475.293 424.113V422.832C475.293 422.563 475.074 422.344 474.805 422.344Z" fill="#3F3D56"/>
<path d="M482.327 422.344H479.542C479.272 422.344 479.054 422.563 479.054 422.832V424.113C479.054 424.383 479.272 424.601 479.542 424.601H482.327C482.597 424.601 482.815 424.383 482.815 424.113V422.832C482.815 422.563 482.597 422.344 482.327 422.344Z" fill="#3F3D56"/>
<path d="M489.85 422.344H487.065C486.796 422.344 486.577 422.563 486.577 422.832V424.113C486.577 424.383 486.796 424.601 487.065 424.601H489.85C490.12 424.601 490.339 424.383 490.339 424.113V422.832C490.339 422.563 490.12 422.344 489.85 422.344Z" fill="#3F3D56"/>
<path d="M497.373 422.344H494.588C494.318 422.344 494.1 422.563 494.1 422.832V424.113C494.1 424.383 494.318 424.601 494.588 424.601H497.373C497.643 424.601 497.861 424.383 497.861 424.113V422.832C497.861 422.563 497.643 422.344 497.373 422.344Z" fill="#3F3D56"/>
<path d="M446.97 426.858H417.854C417.585 426.858 417.366 427.076 417.366 427.346V428.627C417.366 428.896 417.585 429.115 417.854 429.115H446.97C447.239 429.115 447.458 428.896 447.458 428.627V427.346C447.458 427.076 447.239 426.858 446.97 426.858Z" fill="#3F3D56"/>
<path d="M530.377 245.091H338.3C338.1 245.086 337.91 245.004 337.77 244.861C337.63 244.719 337.552 244.527 337.552 244.327C337.552 244.127 337.63 243.935 337.77 243.792C337.91 243.649 338.1 243.567 338.3 243.563H530.377C530.577 243.567 530.767 243.649 530.907 243.792C531.047 243.935 531.125 244.127 531.125 244.327C531.125 244.527 531.047 244.719 530.907 244.861C530.767 245.004 530.577 245.086 530.377 245.091Z" fill="#CACACA"/>
<path d="M351.375 239.663C353.847 239.663 355.851 237.614 355.851 235.086C355.851 232.559 353.847 230.51 351.375 230.51C348.903 230.51 346.898 232.559 346.898 235.086C346.898 237.614 348.903 239.663 351.375 239.663Z" fill="#3F3D56"/>
<path d="M366.84 239.663C369.312 239.663 371.316 237.614 371.316 235.086C371.316 232.559 369.312 230.51 366.84 230.51C364.367 230.51 362.363 232.559 362.363 235.086C362.363 237.614 364.367 239.663 366.84 239.663Z" fill="#3F3D56"/>
<path d="M382.304 239.663C384.776 239.663 386.78 237.614 386.78 235.086C386.78 232.559 384.776 230.51 382.304 230.51C379.831 230.51 377.827 232.559 377.827 235.086C377.827 237.614 379.831 239.663 382.304 239.663Z" fill="#3F3D56"/>
<path d="M521.067 231.645H510.082C509.864 231.649 509.657 231.738 509.504 231.894C509.352 232.049 509.267 232.258 509.267 232.476C509.267 232.694 509.352 232.903 509.504 233.059C509.657 233.214 509.864 233.304 510.082 233.308H521.067C521.285 233.304 521.492 233.214 521.644 233.059C521.797 232.903 521.882 232.694 521.882 232.476C521.882 232.258 521.797 232.049 521.644 231.894C521.492 231.738 521.285 231.649 521.067 231.645Z" fill="#3F3D56"/>
<path d="M521.067 234.767H510.082C509.864 234.771 509.657 234.86 509.504 235.016C509.352 235.172 509.267 235.381 509.267 235.598C509.267 235.816 509.352 236.025 509.504 236.181C509.657 236.336 509.864 236.426 510.082 236.43H521.067C521.285 236.426 521.492 236.336 521.644 236.181C521.797 236.025 521.882 235.816 521.882 235.598C521.882 235.381 521.797 235.172 521.644 235.016C521.492 234.86 521.285 234.771 521.067 234.767Z" fill="#3F3D56"/>
<path d="M521.067 237.885H510.082C509.864 237.889 509.657 237.979 509.504 238.134C509.352 238.29 509.267 238.499 509.267 238.717C509.267 238.934 509.352 239.143 509.504 239.299C509.657 239.454 509.864 239.544 510.082 239.548H521.067C521.285 239.544 521.492 239.454 521.644 239.299C521.797 239.143 521.882 238.934 521.882 238.717C521.882 238.499 521.797 238.29 521.644 238.134C521.492 237.979 521.285 237.889 521.067 237.885Z" fill="#3F3D56"/>
<path d="M449.682 289.715H425.681C423.878 289.715 422.417 291.176 422.417 292.979V292.979C422.417 294.782 423.878 296.243 425.681 296.243H449.682C451.485 296.243 452.946 294.782 452.946 292.979V292.979C452.946 291.176 451.485 289.715 449.682 289.715Z" fill="#1856F5"/>
<path d="M465.187 302.771H410.176C408.374 302.771 406.912 304.233 406.912 306.036V306.036C406.912 307.838 408.374 309.3 410.176 309.3H465.187C466.99 309.3 468.451 307.838 468.451 306.036V306.036C468.451 304.233 466.99 302.771 465.187 302.771Z" fill="#E6E6E6"/>
<path d="M465.187 315.828H410.176C408.374 315.828 406.912 317.29 406.912 319.092C406.912 320.895 408.374 322.356 410.176 322.356H465.187C466.99 322.356 468.451 320.895 468.451 319.092C468.451 317.29 466.99 315.828 465.187 315.828Z" fill="#E6E6E6"/>
<path d="M340.176 440.275H280.176C278.054 440.275 276.019 441.118 274.519 442.618C273.019 444.118 272.176 446.153 272.176 448.275C272.176 450.397 273.019 452.431 274.519 453.932C276.019 455.432 278.054 456.275 280.176 456.275H302.176V518.275H318.176V456.275H340.176C342.298 456.275 344.332 455.432 345.833 453.932C347.333 452.431 348.176 450.397 348.176 448.275C348.176 446.153 347.333 444.118 345.833 442.618C344.332 441.118 342.298 440.275 340.176 440.275Z" fill="#3F3D56"/>
<path d="M379.777 552.612H219.294C203.736 552.555 188.718 546.903 176.983 536.688C165.247 526.473 157.579 512.378 155.377 496.976L149.697 476.08C137.939 432.78 120.029 391.391 96.5154 353.177C85.7681 335.724 80.2365 318.828 92.8006 302.562C92.9075 302.424 93.0127 302.287 93.1162 302.152C103.193 289.036 153.351 286.197 169.702 285.645C170.348 285.623 170.996 285.612 171.647 285.612H271.466C272.117 285.612 272.765 285.623 273.411 285.645C282.225 285.901 290.806 288.54 298.242 293.28C305.678 298.019 311.692 304.684 315.647 312.565C319.867 320.613 321.829 329.652 321.326 338.724C320.823 347.797 317.874 356.564 312.791 364.095C277.728 416.766 266.992 449.792 277.983 471.18C288.614 491.868 321.203 502.445 380.541 504.465C396.488 505.008 403.806 517.425 403.857 528.732C403.907 539.747 396.871 551.908 381.305 552.58C380.799 552.601 380.29 552.612 379.777 552.612Z" fill="#3F3D56"/>
<path d="M246.557 695.112H306.557C308.678 695.112 310.713 694.269 312.214 692.769C313.714 691.268 314.557 689.234 314.557 687.112C314.557 684.99 313.714 682.955 312.214 681.455C310.713 679.955 308.678 679.112 306.557 679.112H284.557V544.112H268.557V679.112H246.557C244.435 679.112 242.4 679.955 240.9 681.455C239.399 682.955 238.557 684.99 238.557 687.112C238.557 689.234 239.399 691.268 240.9 692.769C242.4 694.269 244.435 695.112 246.557 695.112Z" fill="#3F3D56"/>
<path d="M241.765 290.623L243.022 298.266C243.617 301.972 245.772 328.152 244.176 331.275C244.035 325.444 233.176 316.275 226.14 318.369L215.097 320.822L208.244 322.347L202.666 323.57L186.457 327.111C186.428 326.923 186.408 326.723 186.38 326.535C186.341 326.298 186.303 326.061 186.255 325.826C185.953 324.305 185.403 322.845 184.626 321.504C184.543 323.301 184.013 325.048 183.083 326.587C183.058 326.627 183.036 326.669 183.017 326.713C182.729 327.179 182.411 327.625 182.066 328.05C182.05 328.062 182.035 328.075 182.023 328.09C182.023 328.09 178.692 275 179.041 274.51C179.297 274.162 179.554 273.823 179.823 273.493C180.09 273.152 180.35 272.823 180.629 272.491C180.664 272.459 180.695 272.422 180.718 272.38C181.5 271.456 182.327 270.571 183.197 269.73C183.453 269.483 183.719 269.235 183.984 268.987C188.039 265.235 192.885 262.44 198.163 260.809C198.758 260.625 199.377 260.458 200.006 260.288C200.627 260.131 201.26 259.981 201.896 259.851L202.112 259.806C202.416 259.744 202.731 259.69 203.037 259.638C203.421 259.569 203.807 259.511 204.185 259.464C209.096 258.757 214.099 259.038 218.9 260.291C218.91 260.289 218.912 260.299 218.921 260.297C222.929 261.344 226.738 263.04 230.197 265.318C236.18 269.269 238.51 275.713 240.164 282.948C240.743 285.432 241.231 288.017 241.765 290.623Z" fill="#2F2E41"/>
<path d="M300.862 640.686L311.198 646.301L338.56 608.469L323.304 600.183L300.862 640.686Z" fill="#FFB6B6"/>
<path d="M305.837 627.206L324.601 633.082L321.615 640.943L334.482 659.617C335.117 660.54 335.441 661.641 335.407 662.761C335.372 663.88 334.981 664.959 334.289 665.841C333.598 666.722 332.643 667.359 331.564 667.659C330.485 667.959 329.338 667.906 328.291 667.508L306.447 659.209L305.636 650.003L301.212 657.22L292.976 654.091L305.837 627.206Z" fill="#2F2E41"/>
<path d="M359.409 471.475C357.759 471.877 356.042 471.912 354.377 471.578C352.712 471.244 351.141 470.549 349.774 469.542C348.407 468.535 347.277 467.241 346.464 465.75C345.651 464.259 345.175 462.608 345.07 460.914L256.908 429.197L273.088 415.118L356.766 448.435C359.624 448.446 362.379 449.505 364.509 451.412C366.639 453.319 367.995 455.941 368.321 458.781C368.647 461.621 367.92 464.482 366.277 466.821C364.635 469.161 362.191 470.817 359.409 471.475Z" fill="#FFB6B6"/>
<path d="M232.279 350.625C232.279 350.625 217.431 350.952 216.111 367.904C214.79 384.855 247.189 426.785 252.209 433.7C257.229 440.615 312.986 449.125 312.986 449.125L331.94 435.365C312.024 422.46 293.848 412.565 281.65 413.01L232.279 350.625Z" fill="#7CA0FF"/>
<path d="M214.068 425.422L217.687 440.968C217.687 440.968 217.722 455.303 220.261 457.946C222.782 460.577 278.216 455.295 278.216 455.295C278.216 455.295 272.339 432.195 272.417 414.716L214.068 425.422Z" fill="#FFB6B6"/>
<path d="M331.176 624.275L311.176 613.275C310.796 587.25 326.449 552.032 345.016 515.143C303.493 522.284 264.319 524.572 230.436 515.933C224.874 514.464 220.113 510.865 217.182 505.914C214.251 500.964 213.386 495.058 214.774 489.475C214.905 488.927 215.058 488.384 215.231 487.848C219.286 475.475 210.193 467.72 218.557 454.112C240.553 446.6 261.449 444.478 280.557 451.112L292.529 477.583L351.872 469.904C354.739 469.561 357.645 469.789 360.424 470.575C363.202 471.361 365.798 472.689 368.061 474.482C370.324 476.276 372.209 478.499 373.609 481.025C375.008 483.551 375.894 486.328 376.215 489.198C376.295 489.842 376.347 490.489 376.372 491.138C364.372 547.391 350.918 598.007 331.176 624.275Z" fill="#2F2E41"/>
<path d="M216.817 317.995C230.238 315.249 238.892 302.142 236.146 288.721C233.4 275.299 220.293 266.645 206.872 269.392C193.45 272.138 184.797 285.244 187.543 298.666C190.289 312.087 203.396 320.741 216.817 317.995Z" fill="#FFB6B6"/>
<path d="M206.013 326.999L228.874 325.649C229.839 325.592 230.796 325.838 231.614 326.351C232.433 326.864 233.07 327.62 233.438 328.512L239.899 344.174L266.749 366.366C266.749 366.366 277.38 379.894 277.404 397.365C277.429 414.836 281.176 455.275 281.176 455.275C281.176 455.275 265.661 433.436 256.085 439.245C254.456 440.233 253.883 442.254 252.176 443.275C251.325 443.784 249.358 443.289 248.499 443.8C235.303 451.633 221.541 459.286 220.255 457.944C217.73 455.309 214.668 441.847 214.668 441.847L193.741 364.959C192.607 360.914 192.382 356.668 193.082 352.525C193.782 348.382 195.39 344.446 197.791 340.998C199.253 338.939 200.784 337.408 202.208 337.155C205.404 336.474 203.704 329.311 206.013 326.999Z" fill="#7CA0FF"/>
<path d="M400.482 673.255L410.132 666.546L388.271 625.302L374.029 635.204L400.482 673.255Z" fill="#FFB6B6"/>
<path d="M401.941 645.581L386.818 659.099C362.77 632.304 344.59 594.723 329.184 552.047C288.818 540.224 258.377 521.158 231.802 498.52C222.787 490.892 216.029 481.092 223.718 471.799C224.077 471.364 224.452 470.944 224.844 470.539C233.922 461.209 256.944 462.987 270.428 454.439L300.549 486.635L298.655 495.267L355.232 514.432C357.954 515.386 360.461 516.869 362.607 518.797C364.753 520.725 366.496 523.058 367.736 525.663C368.975 528.267 369.687 531.092 369.83 533.973C369.973 536.854 369.544 539.735 368.568 542.449C368.356 543.062 368.118 543.666 367.854 544.26L401.941 645.581Z" fill="#2F2E41"/>
<path d="M394.856 670.535L410.304 658.37L415.104 665.275L437.782 665.206C438.902 665.202 439.994 665.557 440.898 666.218C441.802 666.879 442.472 667.812 442.808 668.88C443.145 669.948 443.131 671.096 442.769 672.156C442.407 673.216 441.716 674.133 440.796 674.772L421.609 688.109L413.555 683.578L417.011 691.306L409.777 696.335L394.856 670.535Z" fill="#2F2E41"/>
<path d="M239.772 520.768C238.209 520.105 236.81 519.107 235.675 517.844C234.539 516.582 233.694 515.086 233.199 513.462C232.704 511.837 232.572 510.124 232.811 508.443C233.049 506.762 233.654 505.154 234.581 503.732L182.827 425.63L204.213 424.004L251.416 500.711C253.702 502.428 255.279 504.923 255.847 507.725C256.416 510.526 255.938 513.439 254.502 515.911C253.067 518.384 250.775 520.244 248.06 521.139C245.345 522.034 242.396 521.902 239.772 520.768Z" fill="#FFB6B6"/>
<path d="M210.015 347.906C210.015 347.906 197.911 339.298 186.726 352.104C175.54 364.91 176.474 417.891 176.369 426.434C176.336 429.11 180.2 434.883 185.522 441.551C187.912 444.545 190.596 447.719 193.353 450.874C194.949 452.7 193.574 456.5 195.176 458.275C196.77 460.04 201.34 459.78 202.856 461.418C210.05 469.193 215.895 475.112 215.895 475.112L239.315 475.4C239.579 457.99 227.656 442.449 212.339 427.43L210.015 347.906Z" fill="#7CA0FF"/>
<path d="M242.847 281.644C241.929 282.097 241.039 282.534 240.164 282.948C236.654 284.674 233.027 286.149 229.309 287.364C228.69 285.681 227.746 284.137 226.531 282.818C226.842 284.639 226.684 286.509 226.071 288.251C220.444 289.645 214.537 289.417 209.033 287.593C212.632 294.257 215.291 308.299 215.098 320.822C215.013 327.443 214.117 333.639 212.16 338.091L209.645 330.44C209.412 327.707 208.943 324.999 208.244 322.347C206.558 314.904 204.984 319.88 202.666 323.57L186.457 327.111C186.429 326.923 186.408 326.723 186.38 326.535C186.342 326.298 186.303 326.061 186.255 325.825C185.954 324.305 185.403 322.845 184.626 321.504C184.544 323.301 184.014 325.048 183.084 326.587C183.058 326.627 183.036 326.669 183.017 326.713C182.73 327.179 182.412 327.625 182.066 328.05C182.05 328.062 182.036 328.075 182.023 328.09C171.558 329.49 164.222 275.524 179.044 274.52C179.475 274.49 179.556 273.833 179.824 273.492C180.091 273.152 180.35 272.823 180.629 272.491C180.665 272.459 180.695 272.422 180.719 272.38C181.511 271.463 182.331 270.581 183.198 269.73C183.454 269.483 183.719 269.235 183.985 268.987C188.053 265.253 192.895 262.464 198.165 260.818C198.761 260.635 199.378 260.458 200.006 260.288C200.627 260.131 201.26 259.981 201.897 259.851L202.113 259.806C202.416 259.744 202.732 259.69 203.037 259.638C203.421 259.569 203.808 259.511 204.186 259.464C205.606 260.18 206.822 261.245 207.718 262.559L218.073 260.44C218.348 260.384 218.624 260.337 218.902 260.301L218.922 260.297C231.85 258.131 240.163 268.526 242.847 281.644Z" fill="#2F2E41"/>
<path d="M186.407 272.102C184.19 273.703 181.857 275.352 179.152 275.748C176.446 276.145 173.279 274.837 172.53 272.207C171.614 268.991 174.518 266.063 177.128 263.973L185.404 257.346C186.92 256.002 188.63 254.896 190.478 254.065C191.406 253.657 192.414 253.463 193.427 253.496C194.441 253.53 195.434 253.792 196.332 254.261C197.222 254.862 197.943 255.68 198.426 256.638C198.91 257.596 199.14 258.662 199.095 259.735C198.977 261.884 198.268 263.959 197.046 265.73C195.51 268.125 193.505 270.184 191.152 271.783C188.799 273.383 186.147 274.49 183.355 275.037" fill="#2F2E41"/>
<path d="M249.176 444.275H189.176C187.054 444.275 185.019 445.118 183.519 446.618C182.019 448.118 181.176 450.153 181.176 452.275C181.176 454.397 182.019 456.431 183.519 457.932C185.019 459.432 187.054 460.275 189.176 460.275H211.176V522.275H227.176V460.275H249.176C251.298 460.275 253.332 459.432 254.833 457.932C256.333 456.431 257.176 454.397 257.176 452.275C257.176 450.153 256.333 448.118 254.833 446.618C253.332 445.118 251.298 444.275 249.176 444.275Z" fill="#3F3D56"/>
<path d="M470.841 698.006L32.0906 698.314C31.7754 698.313 31.4734 698.187 31.2509 697.964C31.0283 697.741 30.9033 697.438 30.9033 697.123C30.9033 696.808 31.0283 696.505 31.2509 696.282C31.4734 696.059 31.7754 695.933 32.0906 695.932L470.841 695.625C471.156 695.626 471.458 695.752 471.68 695.975C471.903 696.198 472.028 696.5 472.028 696.816C472.028 697.131 471.903 697.433 471.68 697.656C471.458 697.88 471.156 698.005 470.841 698.006Z" fill="#CACACA"/>
<path d="M598.521 565.191L608.288 575.835L653.992 543.227L639.576 527.517L598.521 565.191Z" fill="#A0616A"/>
<path d="M618.736 580.255V580.245L617.746 569.615L617.296 569.405L614.666 568.155L602.256 562.285L601.996 562.005L599.506 559.285L585.716 571.945L604.396 592.305L617.206 606.265L617.636 605.865C619.391 604.257 620.812 602.318 621.818 600.16C622.823 598.002 623.394 595.667 623.496 593.288C623.598 590.91 623.23 588.534 622.413 586.298C621.597 584.061 620.347 582.008 618.736 580.255Z" fill="#2F2E41"/>
<path d="M547.917 671.375L561.739 675.574L584.513 624.256L564.112 618.059L547.917 671.375Z" fill="#A0616A"/>
<path d="M583.706 682.865C582.592 680.761 581.07 678.899 579.23 677.388C577.39 675.877 575.267 674.748 572.986 674.065L566.716 665.415L566.226 665.455L549.656 666.975L549.286 666.865L545.766 665.795L540.326 683.705L584.896 697.245L585.066 696.675C585.762 694.397 585.999 692.004 585.766 689.634C585.533 687.264 584.833 684.963 583.706 682.865Z" fill="#2F2E41"/>
<path d="M661.897 402.683C661.897 402.683 750.148 487.89 694.357 514.265H677.113C677.113 514.265 671.931 495.854 660.068 480.329C658.439 478.197 652.335 478.63 650.64 476.553C640.291 463.865 629.071 452.97 621.322 453.402L623.176 512.275L626.176 533.275C627.751 544.131 583.294 638.918 583.294 638.918L555.351 627.936C555.351 627.936 584.464 549.865 584.805 538.61L561.474 414.855L661.897 402.683Z" fill="#2F2E41"/>
<path d="M669.256 406.885C668.806 407.527 668.218 408.06 667.536 408.445C666.411 409.081 665.193 409.533 663.926 409.785C644.056 414.295 579.146 423.645 562.296 419.185C560.226 418.645 558.876 417.885 558.436 416.885C557.026 413.725 557.206 400.375 558.036 384.255C558.186 381.235 561.516 377.965 561.716 374.805C561.856 372.435 558.866 370.205 559.026 367.795C560.126 351.495 561.546 334.885 562.496 324.385C563.096 317.635 563.506 313.415 563.506 313.415L553.256 248.785L553.736 247.995L554.276 247.725L587.326 231.365L589.126 226.765C589.647 225.441 590.554 224.303 591.729 223.499C592.904 222.695 594.292 222.262 595.716 222.255L617.486 222.165C618.615 222.159 619.73 222.422 620.737 222.934C621.744 223.445 622.614 224.19 623.276 225.105L629.176 233.275L668.176 258.275L668.026 258.735L649.726 314.425L649.636 318.765V318.775L648.956 353.675L650.846 358.405L648.716 366.165C648.716 366.165 649.696 375.235 654.946 381.975C659.706 388.095 665.766 394.475 668.506 399.655V399.665C670.026 402.525 670.536 405.005 669.256 406.885Z" fill="#566BA1"/>
<path d="M698.595 509.203L693.877 515.164C693.877 515.164 650.494 545.515 649.004 548.352L642.148 554.839L625.559 537.106L634.186 526.293C641.09 517.639 650.01 510.81 660.165 506.403L673.387 494.673L698.595 509.203Z" fill="#2F2E41"/>
<path d="M671.029 424.016L663.128 347.545L661.043 316.073L683.156 312.074C683.156 312.074 682.279 334.578 685.176 347.275C688.035 359.804 685.555 422.337 685.379 424.009C687.003 425.461 688.148 427.372 688.662 429.489C689.176 431.606 689.036 433.829 688.259 435.864C687.482 437.9 686.106 439.651 684.312 440.887C682.518 442.123 680.391 442.786 678.213 442.787C676.034 442.788 673.907 442.128 672.112 440.893C670.316 439.659 668.938 437.909 668.16 435.874C667.381 433.839 667.238 431.616 667.751 429.499C668.263 427.381 669.406 425.469 671.029 424.016Z" fill="#A0616A"/>
<path d="M692.599 363.392L664.176 369.275L661.691 359.367L658.794 356.294L653.005 325.97L644.7 308.207L646.859 247.463L667.953 258.651L667.979 258.671C671.205 262.173 673.428 267.185 677.125 272.215C688.775 288.064 690.067 326.575 689.715 347.669C689.709 348.015 690.057 348.381 690.476 348.765C692.459 350.586 693.754 353.036 694.141 355.701C694.527 358.365 693.983 361.082 692.599 363.392Z" fill="#566BA1"/>
<path d="M542.324 427.016L550.224 350.545L552.31 319.073L530.197 315.074C530.197 315.074 531.073 337.578 528.176 350.275C525.318 362.804 527.797 425.337 527.974 427.009C526.35 428.461 525.205 430.372 524.691 432.489C524.177 434.606 524.317 436.829 525.094 438.864C525.871 440.9 527.247 442.651 529.041 443.887C530.835 445.123 532.961 445.786 535.14 445.787C537.319 445.788 539.446 445.128 541.241 443.893C543.036 442.659 544.414 440.909 545.193 438.874C545.971 436.839 546.114 434.616 545.602 432.499C545.09 430.381 543.947 428.469 542.324 427.016Z" fill="#A0616A"/>
<path d="M568.656 311.205L562.496 324.385L560.346 328.975L554.556 359.295L551.666 362.365L549.176 372.275L548.006 372.035L526.906 367.665L520.756 366.395C519.37 364.086 518.823 361.368 519.21 358.702C519.596 356.037 520.891 353.586 522.876 351.765C523.296 351.385 523.646 351.015 523.636 350.665C523.286 329.575 524.576 291.065 536.226 275.215C539.926 270.185 542.146 265.175 545.376 261.675C545.386 261.665 545.386 261.655 545.396 261.655L553.256 248.785L553.736 247.995L554.276 247.725L568.656 311.205Z" fill="#566BA1"/>
<path d="M605.972 215.967C621.97 215.967 634.938 202.999 634.938 187.002C634.938 171.004 621.97 158.036 605.972 158.036C589.975 158.036 577.007 171.004 577.007 187.002C577.007 202.999 589.975 215.967 605.972 215.967Z" fill="#A0616A"/>
<path d="M638.536 174.295C638.436 169.355 637.876 163.035 634.416 157.995C631.496 153.755 625.606 150.395 620.116 152.075C620.178 150.977 619.933 149.884 619.411 148.916C618.888 147.949 618.108 147.145 617.156 146.595C615.076 145.325 612.576 145.095 610.366 144.885C604.796 144.365 599.026 143.825 593.386 144.895C587.056 146.095 581.876 149.355 579.186 153.845L579.126 153.985L578.576 156.645C578.503 157.002 578.353 157.338 578.137 157.632C577.921 157.925 577.645 158.168 577.326 158.345C577.007 158.524 576.653 158.63 576.288 158.656C575.923 158.682 575.557 158.627 575.216 158.495C574.843 158.355 574.439 158.315 574.046 158.378C573.652 158.442 573.282 158.607 572.972 158.858C572.662 159.108 572.423 159.435 572.278 159.807C572.133 160.178 572.088 160.581 572.146 160.975L572.296 162.035L570.706 161.735C570.307 161.658 569.894 161.688 569.511 161.824C569.128 161.959 568.787 162.194 568.526 162.505C568.264 162.816 568.089 163.191 568.021 163.592C567.952 163.993 567.992 164.405 568.136 164.785L568.576 165.995C568.247 165.999 567.923 166.07 567.623 166.202C567.322 166.334 567.051 166.526 566.826 166.765C566.505 167.113 566.303 167.555 566.249 168.026C566.195 168.497 566.292 168.973 566.526 169.385C568.308 172.427 570.834 174.966 573.866 176.765C575.23 177.586 576.7 178.216 578.236 178.635C578.556 178.725 578.886 178.805 579.226 178.875C591.504 181.521 604.162 181.9 616.576 179.995C615.845 182.444 615.564 185.005 615.746 187.555C616.146 190.745 618.016 193.375 620.516 194.255C621.082 194.447 621.665 194.587 622.256 194.675C622.823 194.767 623.381 194.904 623.926 195.085C624.73 195.379 625.442 195.881 625.99 196.539C626.539 197.198 626.903 197.989 627.047 198.833C627.191 199.678 627.11 200.545 626.811 201.348C626.512 202.151 626.007 202.86 625.346 203.405C625.346 203.405 627.966 205.575 628.296 205.465C629.584 204.896 630.661 203.938 631.376 202.725C636.366 195.545 638.776 185.985 638.536 174.295Z" fill="#2F2E41"/>
<path d="M711.94 353.391L715.156 348.428C714.202 345.798 713.101 343.223 711.856 340.716L709.776 342.393L711.423 339.852C709.854 336.768 708.619 334.825 708.619 334.825C708.619 334.825 702.168 344.973 700.013 355.719L704.14 362.087L699.571 358.402C699.408 359.654 699.325 360.915 699.32 362.177C699.32 374.903 703.483 385.219 708.619 385.219C713.754 385.219 717.917 374.903 717.917 362.177C717.821 358.128 717.104 354.118 715.79 350.286L711.94 353.391Z" fill="#FF6584"/>
<path d="M734.707 364.424L740.496 363.185C741.685 360.651 742.73 358.053 743.625 355.402L740.966 355.12L743.931 354.486C745.005 351.197 745.509 348.951 745.509 348.951C745.509 348.951 733.759 351.573 724.625 357.65L723.033 365.067L722.411 359.235C721.41 360.006 720.458 360.838 719.561 361.727C710.547 370.726 706.184 380.96 709.815 384.585C713.447 388.21 723.697 383.855 732.711 374.856C735.51 371.925 737.843 368.583 739.628 364.946L734.707 364.424Z" fill="#FF6584"/>
<path d="M736.821 413.667C723.396 414.524 708.768 413.617 693.206 413.667V378.096C706.919 380.227 721.542 380.009 736.821 378.096V413.667Z" fill="#3F3D56"/>
<path d="M84.9625 700.843C64.3313 702.161 41.8514 700.767 17.9365 700.843V646.18C39.0095 649.455 61.4819 649.118 84.9625 646.18V700.843Z" fill="#3F3D56"/>
<path d="M53.8089 651.088H48.1445L50.033 540.623H51.9205L53.8089 651.088Z" fill="#3F3D56"/>
<path d="M79.2983 651.835H73.6338L75.5223 541.369H77.4098L79.2983 651.835Z" fill="#3F3D56"/>
<path d="M31.1527 651.835H25.4883L27.3767 541.369H29.2643L31.1527 651.835Z" fill="#3F3D56"/>
<path d="M58.5293 469.937L67.6728 455.83C64.9612 448.352 61.8294 441.032 58.2921 433.906L52.3796 438.674L57.0611 431.451C52.5996 422.683 49.089 417.159 49.089 417.159C49.089 417.159 30.7513 446.008 24.6248 476.553L36.3581 494.657L23.3689 484.183C22.9062 487.741 22.6682 491.325 22.6562 494.913C22.6562 531.088 34.4906 560.415 49.089 560.415C63.6874 560.415 75.5217 531.088 75.5217 494.913C75.5217 483.698 72.9804 471.965 69.4748 461.111L58.5293 469.937Z" fill="#96A5CC"/>
<path d="M84.0185 471.822L93.162 457.714C90.4505 450.236 87.3186 442.917 83.7814 435.791L77.8688 440.559L82.5504 433.336C78.0888 424.568 74.5783 419.043 74.5783 419.043C74.5783 419.043 56.2406 447.893 50.1141 478.438L61.8473 496.542L48.8581 486.068C48.3955 489.626 48.1575 493.21 48.1455 496.798C48.1455 532.973 59.9798 562.299 74.5783 562.299C89.1767 562.299 101.011 532.973 101.011 496.798C101.011 485.583 98.4697 473.849 94.964 462.996L84.0185 471.822Z" fill="#1856F5"/>
<path d="M35.873 471.822L45.0165 457.714C42.305 450.236 39.1731 442.917 35.6359 435.791L29.7233 440.559L34.4049 433.336C29.9433 424.568 26.4327 419.043 26.4327 419.043C26.4327 419.043 8.09506 447.893 1.96856 478.438L13.7018 496.542L0.71262 486.068C0.24998 489.626 0.0119782 493.21 0 496.798C0 532.973 11.8343 562.299 26.4327 562.299C41.0312 562.299 52.8655 532.973 52.8655 496.798C52.8655 485.583 50.3242 473.849 46.8186 462.996L35.873 471.822Z" fill="#1856F5"/>
<path d="M789.996 83.2322C789.727 87.0638 788.598 90.7856 786.693 94.1207C782.678 101.172 775.792 106.278 768.376 109.313C759.11 113.104 748.782 113.221 738.949 112.376C729.816 111.589 720.776 109.77 711.61 109.395C704.521 109.169 697.425 109.338 690.355 109.902C676.638 110.876 662.979 112.682 649.407 114.872C645.731 115.458 642.064 116.087 638.404 116.76C638.058 116.791 637.716 116.855 637.382 116.95C637.316 116.978 637.209 116.956 637.148 116.995C637.037 117.064 637.595 116.819 637.257 117.098C636.786 117.592 636.366 118.132 636.004 118.71L630.991 125.161C629.554 127.011 628.22 129.258 626.362 130.716C625.052 131.728 623.472 132.329 621.821 132.444C620.17 132.559 618.521 132.183 617.084 131.362C615.582 130.413 614.385 129.053 613.634 127.443C612.481 125.328 611.105 123.343 609.531 121.52C603.567 114.564 595.28 110.285 588.348 104.432C584.99 101.713 582.125 98.4372 579.876 94.7479C577.958 91.4093 576.765 87.7037 576.376 83.8731C575.546 76.0939 577.933 68.1601 581.946 61.5422C586.313 54.4321 592.587 48.6895 600.055 44.9669C608.443 40.693 617.727 38.6104 627.033 37.5737C636.912 36.4721 646.907 36.4754 656.835 36.5868C667.975 36.7109 679.097 37.2008 690.2 38.0567C701.316 38.9173 712.389 40.1405 723.418 41.7264C734 43.248 744.715 44.8338 755.069 47.5258C764.22 49.9039 773.346 53.6202 780.18 60.3574C786.26 66.3482 790.486 74.5435 789.996 83.2322Z" fill="#1856F5"/>
<path d="M738.842 85.7094C739.295 85.689 739.738 85.5752 740.144 85.3751C740.551 85.1751 740.911 84.8931 741.203 84.5469C741.495 84.2007 741.712 83.7978 741.841 83.3636C741.969 82.9294 742.007 82.4733 741.951 82.0239L741.715 80.1727C741.671 79.8175 741.713 79.4567 741.838 79.1215C741.964 78.7862 742.169 78.4865 742.436 78.2481L743.827 77.003C744.282 76.5962 744.614 76.0701 744.786 75.4844C744.958 74.8986 744.962 74.2764 744.799 73.6882C744.636 73.1 744.311 72.5692 743.862 72.1558C743.413 71.7424 742.857 71.463 742.257 71.349L740.422 71.001C740.071 70.9343 739.741 70.7833 739.461 70.5608C739.181 70.3383 738.959 70.051 738.815 69.7238L738.063 68.0154C737.816 67.4569 737.419 66.9783 736.914 66.6339C736.41 66.2895 735.82 66.093 735.21 66.0666C734.6 66.0401 733.995 66.1848 733.463 66.4843C732.931 66.7837 732.493 67.226 732.2 67.7612L731.302 69.3994C731.13 69.7135 730.885 69.981 730.586 70.1788C730.288 70.3767 729.946 70.4989 729.589 70.5351L727.734 70.7225C727.126 70.784 726.548 71.0142 726.065 71.3871C725.581 71.76 725.212 72.2608 724.998 72.8328C724.784 73.4048 724.735 74.0251 724.855 74.6237C724.976 75.2223 725.262 75.7752 725.68 76.2199L726.958 77.579C727.203 77.8393 727.381 78.1555 727.477 78.5002C727.573 78.8449 727.583 79.2077 727.508 79.5573L727.114 81.3817C726.985 81.9783 727.026 82.5992 727.231 83.174C727.436 83.7489 727.798 84.2548 728.276 84.6347C728.754 85.0145 729.329 85.2531 729.935 85.3236C730.541 85.394 731.155 85.2933 731.707 85.0331L733.395 84.2382C733.718 84.085 734.074 84.013 734.432 84.0284C734.79 84.0438 735.138 84.1462 735.447 84.3267L737.06 85.2657C737.6 85.5805 738.218 85.7344 738.842 85.7094Z" fill="white"/>
<path d="M712.567 84.9458C713.4 84.9077 714.187 84.5566 714.771 83.9629C715.124 83.5889 715.388 83.1395 715.541 82.6487C715.695 82.1579 715.735 81.6386 715.659 81.13L715.443 79.4315C715.397 79.0697 715.44 78.7022 715.567 78.3607C715.695 78.0191 715.904 77.7137 716.176 77.4708L717.465 76.3181C717.846 75.9934 718.149 75.5879 718.353 75.1312C718.557 74.6744 718.657 74.178 718.645 73.6779C718.617 72.9372 718.338 72.2281 717.854 71.6668C717.37 71.1054 716.709 70.7251 715.981 70.5881L714.169 70.244C713.811 70.176 713.474 70.0219 713.189 69.7949C712.904 69.568 712.678 69.275 712.531 68.9413L711.856 67.4079C711.614 66.826 711.217 66.3219 710.708 65.9513C710.198 65.5806 709.596 65.3576 708.968 65.307C708.353 65.2721 707.74 65.4127 707.201 65.7125C706.663 66.0123 706.22 66.4588 705.925 67.0003L705.039 68.6169C704.863 68.9369 704.612 69.2094 704.308 69.4109C704.004 69.6124 703.655 69.7369 703.292 69.7735L701.572 69.9472C701.073 69.9859 700.589 70.1354 700.156 70.3848C699.722 70.6342 699.35 70.9772 699.065 71.3889C698.654 72.0046 698.463 72.7417 698.525 73.4797C698.587 74.2177 698.897 74.9129 699.405 75.4518L700.668 76.7945C700.918 77.0599 701.099 77.3819 701.197 77.733C701.294 78.084 701.305 78.4535 701.228 78.8096L700.864 80.4943C700.747 80.9806 700.74 81.4868 700.842 81.9762C700.945 82.4657 701.155 82.9262 701.457 83.3246C701.914 83.91 702.557 84.3222 703.279 84.4931C704.001 84.6641 704.761 84.5836 705.431 84.265L707.101 83.4786C707.431 83.3234 707.793 83.2507 708.157 83.2665C708.521 83.2824 708.875 83.3864 709.19 83.5697L710.784 84.4976C711.323 84.8143 711.942 84.9698 712.567 84.9458Z" fill="white"/>
<path d="M686.226 84.8344C686.678 84.814 687.121 84.7002 687.528 84.5001C687.934 84.3001 688.294 84.0181 688.586 83.6719C688.878 83.3257 689.095 82.9228 689.224 82.4886C689.353 82.0544 689.39 81.5983 689.334 81.1489L689.098 79.2977C689.054 78.9425 689.096 78.5817 689.222 78.2465C689.347 77.9112 689.552 77.6115 689.819 77.373L691.21 76.128C691.665 75.7212 691.997 75.1951 692.169 74.6094C692.341 74.0236 692.345 73.4014 692.182 72.8132C692.019 72.225 691.694 71.6942 691.245 71.2808C690.796 70.8674 690.24 70.588 689.64 70.474L687.806 70.126C687.454 70.0593 687.124 69.9083 686.844 69.6858C686.564 69.4633 686.342 69.176 686.198 68.8488L685.446 67.1404C685.199 66.5819 684.802 66.1033 684.298 65.7589C683.794 65.4145 683.203 65.218 682.593 65.1916C681.983 65.1651 681.378 65.3098 680.846 65.6092C680.314 65.9087 679.877 66.351 679.583 66.8862L678.686 68.5244C678.514 68.8385 678.268 69.106 677.969 69.3038C677.671 69.5017 677.329 69.6239 676.973 69.6601L675.117 69.8475C674.509 69.9091 673.931 70.1393 673.448 70.5122C672.965 70.8851 672.595 71.3857 672.382 71.9576C672.168 72.5295 672.119 73.1497 672.239 73.7481C672.36 74.3466 672.645 74.8995 673.063 75.3442L674.341 76.7027C674.586 76.963 674.765 77.2792 674.86 77.6239C674.956 77.9686 674.966 78.3315 674.89 78.681L674.497 80.5054C674.368 81.102 674.408 81.7228 674.614 82.2977C674.819 82.8725 675.181 83.3785 675.659 83.7583C676.137 84.1382 676.711 84.3768 677.318 84.4472C677.924 84.5176 678.538 84.417 679.09 84.1568L680.777 83.3619C681.101 83.2087 681.457 83.1367 681.815 83.1521C682.172 83.1675 682.521 83.2699 682.83 83.4504L684.443 84.3894C684.982 84.7054 685.601 84.8602 686.226 84.8357L686.226 84.8344Z" fill="white"/>
<path d="M660.602 84.139C661.054 84.1187 661.497 84.0049 661.904 83.8048C662.31 83.6047 662.67 83.3228 662.962 82.9766C663.254 82.6304 663.471 82.2275 663.6 81.7933C663.729 81.3591 663.766 80.903 663.71 80.4536L663.474 78.6024C663.43 78.2472 663.472 77.8864 663.598 77.5512C663.723 77.2159 663.928 76.9162 664.195 76.6777L665.586 75.4326C666.041 75.0256 666.373 74.4994 666.545 73.9134C666.717 73.3274 666.721 72.705 666.557 72.1167C666.394 71.5284 666.069 70.9977 665.619 70.5845C665.169 70.1713 664.613 69.8922 664.013 69.7787L662.178 69.4307C661.827 69.364 661.497 69.2129 661.217 68.9904C660.937 68.768 660.715 68.4807 660.571 68.1535L659.819 66.4451C659.572 65.8865 659.174 65.408 658.67 65.0636C658.166 64.7192 657.576 64.5227 656.966 64.4962C656.356 64.4698 655.751 64.6145 655.219 64.9139C654.687 65.2134 654.249 65.6557 653.956 66.1909L653.058 67.8291C652.886 68.1433 652.64 68.4108 652.342 68.6086C652.043 68.8065 651.701 68.9287 651.345 68.9648L649.489 69.1522C648.882 69.2137 648.304 69.444 647.82 69.8169C647.337 70.1898 646.967 70.6904 646.754 71.2623C646.54 71.8341 646.491 72.4544 646.611 73.0529C646.732 73.6513 647.017 74.2042 647.435 74.6489L648.713 76.008C648.958 76.2683 649.137 76.5845 649.233 76.9292C649.328 77.2739 649.339 77.6368 649.263 77.9864L648.87 79.8107C648.741 80.4074 648.781 81.0282 648.986 81.603C649.192 82.1779 649.554 82.6838 650.032 83.0637C650.509 83.4436 651.084 83.6822 651.69 83.7526C652.297 83.823 652.911 83.7224 653.463 83.4621L655.15 82.6672C655.474 82.514 655.83 82.442 656.187 82.4574C656.545 82.4728 656.893 82.5752 657.203 82.7557L658.815 83.6947C659.356 84.0105 659.976 84.1647 660.602 84.139Z" fill="white"/>
<path d="M634.979 83.4447C635.431 83.4243 635.874 83.3105 636.281 83.1105C636.687 82.9104 637.047 82.6284 637.339 82.2822C637.631 81.936 637.848 81.5332 637.977 81.099C638.106 80.6648 638.143 80.2086 638.087 79.7593L637.851 77.908C637.807 77.5528 637.849 77.1921 637.975 76.8568C638.1 76.5216 638.305 76.2218 638.572 75.9834L639.963 74.7383C640.418 74.3313 640.75 73.805 640.922 73.219C641.094 72.633 641.098 72.0107 640.934 71.4224C640.771 70.8341 640.446 70.3034 639.996 69.8902C639.546 69.477 638.99 69.1978 638.39 69.0843L636.555 68.7364C636.204 68.6697 635.874 68.5186 635.594 68.2961C635.314 68.0736 635.092 67.7864 634.948 67.4592L634.195 65.7508C633.949 65.1922 633.551 64.7137 633.047 64.3693C632.543 64.0249 631.953 63.8284 631.343 63.8019C630.733 63.7755 630.128 63.9201 629.596 64.2196C629.064 64.5191 628.626 64.9614 628.332 65.4965L627.435 67.1348C627.263 67.4489 627.017 67.7165 626.719 67.9143C626.42 68.1122 626.078 68.2344 625.722 68.2704L623.866 68.4579C623.259 68.5194 622.681 68.7496 622.197 69.1225C621.714 69.4954 621.344 69.9961 621.131 70.5679C620.917 71.1398 620.868 71.76 620.988 72.3585C621.109 72.957 621.394 73.5098 621.812 73.9546L623.09 75.3137C623.335 75.574 623.514 75.8902 623.61 76.2349C623.705 76.5796 623.716 76.9424 623.64 77.292L623.247 79.1164C623.118 79.713 623.158 80.3339 623.363 80.9087C623.569 81.4836 623.931 81.9895 624.409 82.3694C624.886 82.7492 625.461 82.9878 626.067 83.0582C626.674 83.1287 627.288 83.028 627.84 82.7678L629.527 81.9729C629.851 81.8197 630.207 81.7477 630.564 81.7631C630.922 81.7785 631.27 81.8809 631.579 82.0614L633.192 83.0004C633.733 83.3162 634.353 83.4704 634.979 83.4447Z" fill="white"/>
</svg>
