<svg width="811" height="436" viewBox="0 0 811 436" fill="none" xmlns="http://www.w3.org/2000/svg">
<path d="M116.546 329.764C116.546 373.653 90.4559 388.974 58.2693 388.974C57.5274 388.974 56.7854 388.967 56.0435 388.951C54.552 388.913 53.0757 388.852 51.6148 388.737C44.7978 388.335 38.0779 386.925 31.6741 384.553C12.8655 377.325 0 360.589 0 329.764C0.00264222 327.796 0.115002 325.83 0.336553 323.874C1.41505 314.03 5.05596 303.758 10.0277 293.776C12.8782 288.104 16.0394 282.593 19.4971 277.27C23.9028 270.432 28.6375 263.953 33.2345 258.117C36.1423 254.411 39.8399 251.399 44.0581 249.302C48.2763 247.205 52.9091 246.075 57.6192 245.993C57.7262 245.993 57.8333 245.986 57.9481 245.993C62.8235 245.927 67.6487 246.986 72.0479 249.089C76.4471 251.191 80.3018 254.281 83.3118 258.117C99.1068 278.18 116.546 305.754 116.546 329.764Z" fill="#1856F5"/>
<path d="M56.1505 384.94L77.4603 355.162L56.0969 388.213L56.0434 391.632L55.4391 428.401L55.3856 431.682H49.5036L50.0848 420.584L51.6146 391.418L53.9093 347.521L53.8864 347.177L53.9246 347.116L54.1464 342.97L32.7295 309.835L54.2076 339.857L54.2612 340.737L55.9975 307.563L37.663 273.327L56.2269 301.75L57.619 248.675C57.7261 248.675 57.8332 248.667 57.9479 248.675L57.7337 287.194L75.9917 265.693L57.6573 291.86L57.1754 321.569L74.2248 293.061L57.1066 325.936L56.8388 342.45L81.583 302.775L56.747 348.21L56.1505 384.94Z" fill="#3F3D56"/>
<path d="M116.546 329.764C116.546 373.653 90.4559 388.974 58.2693 388.974C57.5274 388.974 56.7854 388.967 56.0435 388.951C54.552 388.913 53.0757 388.852 51.6148 388.737C44.7978 388.335 38.0779 386.925 31.6741 384.553C12.8655 377.325 0 360.589 0 329.764C0.00264222 327.796 0.115002 325.83 0.336553 323.874C1.41505 314.03 5.05596 303.758 10.0277 293.776C12.8782 288.104 16.0394 282.593 19.4971 277.27C23.9028 270.432 28.6375 263.953 33.2345 258.117C36.1423 254.411 39.8399 251.399 44.0581 249.302C48.2763 247.205 52.9091 246.075 57.6192 245.993C57.7262 245.993 57.8333 245.986 57.9481 245.993C62.8235 245.927 67.6487 246.986 72.0479 249.089C76.4471 251.191 80.3018 254.281 83.3118 258.117C99.1068 278.18 116.546 305.754 116.546 329.764Z" fill="#1856F5"/>
<path d="M56.1505 384.94L77.4603 355.162L56.0969 388.213L56.0434 391.632L55.4391 428.401L55.3856 431.682H49.5036L50.0848 420.584L51.6146 391.418L53.9093 347.521L53.8864 347.177L53.9246 347.116L54.1464 342.97L32.7295 309.835L54.2076 339.857L54.2612 340.737L55.9975 307.563L37.663 273.327L56.2269 301.75L57.619 248.675C57.7261 248.675 57.8332 248.667 57.9479 248.675L57.7337 287.194L75.9917 265.693L57.6573 291.86L57.1754 321.569L74.2248 293.061L57.1066 325.936L56.8388 342.45L81.583 302.775L56.747 348.21L56.1505 384.94Z" fill="#3F3D56"/>
<path d="M794.69 418.091H790.976C758.648 376.09 728.23 332.71 699.722 287.952C679.813 256.724 660.892 224.892 642.961 192.455C641.904 190.545 640.851 188.632 639.801 186.716C632.38 173.18 625.133 159.552 618.06 145.833C611.795 133.687 605.672 121.471 599.69 109.184C597.983 105.672 596.319 102.151 594.664 98.6134C590.766 90.3074 586.945 81.9523 582.835 73.756C578.69 65.4736 573.741 56.8481 566.702 50.6253C565.798 49.8142 564.852 49.0503 563.869 48.3366C562.754 47.5194 561.583 46.7812 560.366 46.1273C560.244 46.057 560.119 45.9951 559.996 45.9248C557.021 44.3382 553.747 43.3937 550.384 43.1523C543.387 42.6946 536.935 45.5901 530.862 48.741C520.617 54.0835 510.528 59.734 500.594 65.6925C467.588 85.5276 436.442 108.306 407.537 133.748L407.317 133.942C369.629 167.039 335.942 204.433 306.944 245.359C306.056 246.627 303.961 245.412 304.859 244.147C308.379 239.156 311.973 234.222 315.641 229.343C342.992 192.947 374.12 159.549 408.505 129.709C412.351 126.364 416.242 123.067 420.176 119.816C439.49 103.826 459.718 88.9732 480.757 75.3329C487.2 71.1524 493.716 67.0979 500.305 63.1692C504.67 60.5553 509.065 57.994 513.49 55.4852C519.088 52.3168 524.712 49.1835 530.433 46.2522C536.039 43.3651 541.989 40.7775 548.397 40.6811C553.013 40.5968 557.573 41.7064 561.634 43.9023C561.756 43.9726 561.89 44.0344 562.013 44.1133C564.495 45.5026 566.8 47.1872 568.878 49.1302C578.181 57.7466 584.404 71.266 589.244 81.6431C591.682 86.8801 594.15 92.0941 596.646 97.285C606.073 117.009 615.866 136.558 626.026 155.93C631.457 166.272 636.99 176.569 642.626 186.823C643.489 188.417 644.368 190.009 645.249 191.593C665.616 228.392 687.262 264.449 710.186 299.764C737.41 341.694 764.448 379.241 794.69 418.091Z" fill="#D3D3D3"/>
<path d="M804.114 367.134V422.111C804.114 424.54 803.15 426.868 801.433 428.586C799.716 430.303 797.387 431.267 794.959 431.267H500.281C498.582 431.267 496.953 430.592 495.751 429.391C494.549 428.19 493.874 426.561 493.874 424.861V424.796C493.874 379.004 636.3 339.946 676.797 324.779C699.665 316.241 724.767 315.788 747.929 323.493C771.09 331.199 790.918 346.599 804.114 367.134Z" fill="#3F3D56"/>
<path d="M810.758 291.827C810.758 317.192 795.679 326.047 777.078 326.047C776.649 326.047 776.22 326.042 775.791 326.034C774.929 326.011 774.076 325.976 773.232 325.91C769.292 325.677 765.408 324.862 761.707 323.492C750.837 319.314 743.402 309.642 743.402 291.827C743.403 290.69 743.468 289.554 743.596 288.424C744.22 282.734 746.324 276.797 749.197 271.029C750.845 267.751 752.672 264.566 754.67 261.489C757.216 257.537 759.952 253.793 762.609 250.42C764.29 248.278 766.427 246.538 768.864 245.326C771.302 244.114 773.98 243.46 776.702 243.413C776.764 243.413 776.826 243.409 776.892 243.413C779.71 243.375 782.498 243.987 785.041 245.202C787.583 246.418 789.811 248.203 791.551 250.42C800.679 262.015 810.758 277.951 810.758 291.827Z" fill="#1856F5"/>
<path d="M616.364 317.012C616.364 335.261 605.516 341.631 592.133 341.631C591.825 341.631 591.516 341.628 591.208 341.621C590.588 341.605 589.974 341.58 589.367 341.532C586.532 341.365 583.738 340.779 581.075 339.793C573.255 336.787 567.906 329.829 567.906 317.012C567.907 316.194 567.954 315.376 568.046 314.563C568.494 310.47 570.008 306.199 572.075 302.048C573.26 299.69 574.575 297.399 576.012 295.185C577.844 292.342 579.813 289.648 581.724 287.222C582.933 285.681 584.471 284.429 586.225 283.557C587.979 282.685 589.905 282.215 591.863 282.181C591.908 282.181 591.952 282.178 592 282.181C594.027 282.153 596.033 282.594 597.862 283.468C599.692 284.342 601.294 285.627 602.546 287.222C609.113 295.564 616.364 307.029 616.364 317.012Z" fill="#1856F5"/>
<path d="M775.853 322.166L788.169 304.956L775.822 324.058L775.791 326.034L775.442 347.283L775.411 349.18H772.012L772.348 342.765L773.232 325.91L774.558 300.54L774.545 300.341L774.567 300.306L774.695 297.91L762.317 278.76L774.73 296.111L774.761 296.619L775.765 277.447L765.169 257.661L775.897 274.088L776.702 243.413C776.764 243.413 776.826 243.409 776.892 243.413L776.768 265.675L787.32 253.249L776.724 268.372L776.445 285.541L786.299 269.066L776.406 288.065L776.251 297.609L790.551 274.68L776.198 300.938L775.853 322.166Z" fill="#3F3D56"/>
<path d="M591.252 338.838L600.113 326.457L591.23 340.2L591.208 341.621L590.957 356.909L590.934 358.273H588.489L588.73 353.659L589.366 341.532L590.32 323.28L590.311 323.137L590.327 323.112L590.419 321.388L581.514 307.611L590.445 320.094L590.467 320.459L591.189 306.666L583.565 292.431L591.284 304.249L591.863 282.181C591.907 282.181 591.952 282.178 592 282.181L591.911 298.197L599.502 289.257L591.879 300.137L591.678 312.489L598.767 300.636L591.65 314.305L591.539 321.172L601.827 304.675L591.5 323.567L591.252 338.838Z" fill="#3F3D56"/>
<circle cx="35" cy="104.244" r="35" fill="#FF6583"/>
<path d="M147.31 115.815C147.487 112.448 148.959 109.277 151.421 106.956C153.883 104.635 157.147 103.341 160.542 103.341C160.944 103.341 161.342 103.362 161.735 103.396C163.283 100.751 165.503 98.5554 168.172 97.0289C170.841 95.5025 173.867 94.6983 176.947 94.6969C180.027 94.6955 183.053 95.4968 185.724 97.0207C188.395 98.5447 190.616 100.738 192.167 103.382C192.499 103.357 192.833 103.34 193.171 103.34C196.565 103.34 199.83 104.634 202.292 106.955C204.754 109.276 206.225 112.447 206.403 115.814" fill="#F2F2F2"/>
<path d="M3.52441 163.579C4.11154 152.435 8.98154 141.94 17.13 134.258C25.2785 126.576 36.084 122.294 47.3179 122.293C48.6508 122.293 49.9669 122.362 51.2695 122.478C56.3924 113.724 63.738 106.457 72.5726 101.405C81.4073 96.3526 91.4217 93.6911 101.616 93.6863C111.81 93.6816 121.827 96.3336 130.666 101.378C139.506 106.422 146.858 113.681 151.989 122.431C153.089 122.349 154.195 122.294 155.315 122.294C166.548 122.295 177.354 126.577 185.502 134.259C193.651 141.94 198.521 152.435 199.108 163.579" fill="#F2F2F2"/>
<path d="M31.2661 175.199C31.5061 170.643 33.497 166.353 36.8282 163.212C40.1593 160.072 44.5767 158.321 49.1693 158.321C49.7142 158.321 50.252 158.348 50.7846 158.397C52.8789 154.818 55.8818 151.847 59.4935 149.782C63.1051 147.716 67.199 146.628 71.3664 146.626C75.5338 146.624 79.6288 147.709 83.2424 149.771C86.856 151.833 89.8617 154.8 91.9594 158.377C92.4087 158.344 92.8608 158.321 93.3187 158.321C97.9111 158.321 102.328 160.072 105.66 163.212C108.991 166.352 110.982 170.643 111.222 175.198" fill="#1856F5"/>
<path d="M576.394 91.0594C569.518 79.6866 561.369 67.543 548.608 63.8292C533.83 59.5288 518.649 68.0723 505.773 76.5028C467.264 101.715 430.179 129.038 394.688 158.346L394.727 158.788L477.62 153.071C497.583 151.695 518.233 150.128 535.875 140.684C542.569 137.102 549.095 132.313 556.681 131.98C566.106 131.565 574.324 138.148 580.782 145.025C618.985 185.707 630.04 247.918 672.899 283.661C645.874 217.01 613.604 152.607 576.394 91.0594Z" fill="#F2F2F2"/>
<path d="M334.958 192.822C334.958 194.771 334.895 196.703 334.77 198.62C334.067 209.673 331.296 220.492 326.603 230.507C326.567 230.593 326.525 230.672 326.488 230.751C326.27 231.216 326.046 231.68 325.815 232.138C324.42 234.971 322.871 237.724 321.177 240.387C313.439 252.608 302.834 262.72 290.297 269.83C277.76 276.94 263.679 280.828 249.297 281.151L250.164 331.399L261.471 325.399L263.49 329.266L250.249 336.293L251.868 429.614L251.886 430.861L243.143 432.822L243.161 431.569L245.914 281.158C234.338 280.99 222.91 278.507 212.294 273.852C201.678 269.197 192.086 262.464 184.074 254.042C183.522 253.468 182.976 252.875 182.443 252.289C182.418 252.264 182.4 252.24 182.382 252.221C175.706 244.885 170.307 236.465 166.413 227.318C166.498 227.415 166.589 227.507 166.673 227.605C157.871 206.862 157.274 183.512 165.005 162.34C172.735 141.168 188.208 123.776 208.252 113.73C208.555 113.577 208.864 113.43 209.167 113.278C228.995 103.653 251.686 101.887 272.745 108.33C293.803 114.772 311.691 128.953 322.863 148.061C323.396 148.965 323.912 149.888 324.409 150.817C331.349 163.712 334.975 178.152 334.958 192.822Z" fill="#D3D3D3"/>
<path d="M323.156 229.827C386.62 229.827 438.069 178.378 438.069 114.913C438.069 51.4485 386.62 0 323.156 0C259.691 0 208.242 51.4485 208.242 114.913C208.242 178.378 259.691 229.827 323.156 229.827Z" fill="#1856F5"/>
<path opacity="0.2" d="M238.308 38.1604C213.36 96.5207 240.444 164.057 298.804 189.007C320.946 198.473 345.502 200.744 369.005 195.501C392.507 190.257 413.769 177.764 429.788 159.784C404.841 218.146 337.306 245.235 278.946 220.291C220.585 195.346 193.495 127.809 218.439 69.4486C223.326 58.0144 230.036 47.449 238.308 38.1646L238.308 38.1604Z" fill="black"/>
<path d="M329.374 435.041L317.637 431.749L317.661 430.488L321.177 239.34L321.353 229.81L321.359 229.531L321.972 196.137L322.863 147.732V147.726L323.469 114.914H323.79L324.409 150.46L325.215 196.725L325.791 229.555V229.798L325.815 231.15V231.156L326.931 295.148L327.046 301.508L329.35 433.768L329.374 435.041Z" fill="#090814"/>
<path d="M341.748 287.346L322.753 297.347L325.4 302.375L344.396 292.375L341.748 287.346Z" fill="#090814"/>
<path d="M7.12152 435.041H802.128C803.719 435.009 804.981 434.267 804.981 433.362C804.981 432.457 803.719 431.715 802.128 431.683H7.12152C5.53052 431.715 4.26855 432.457 4.26855 433.362C4.26855 434.267 5.53052 435.01 7.12152 435.041Z" fill="#F2F2F2"/>
<path d="M624.929 432.645C624.929 432.645 627.729 415.093 652.316 415.25L624.929 432.645Z" fill="#1856F5"/>
<path d="M707.584 432.645C707.584 432.645 710.384 415.093 734.971 415.25L707.584 432.645Z" fill="#1856F5"/>
<path d="M624.866 432.822C624.866 432.822 613.883 409.41 645.121 390.186L624.866 432.822Z" fill="#1856F5"/>
<path d="M661.707 432.548C661.707 432.548 652.33 409.467 680.46 392.156L661.707 432.548Z" fill="#1856F5"/>
<path d="M661.171 431.682C661.171 431.682 671.011 418.192 655.523 402.371L661.171 431.682Z" fill="#1856F5"/>
<path d="M681.293 416.799C682.473 417.214 683.74 417.318 684.973 417.101C686.205 416.884 687.36 416.353 688.328 415.56C690.792 413.492 691.565 410.085 692.193 406.93L694.052 397.598L690.16 400.278C687.36 402.205 684.498 404.195 682.56 406.987C680.622 409.779 679.776 413.587 681.333 416.611" fill="#1856F5"/>
<path d="M681.892 428.747C681.26 425.186 681.042 421.565 681.243 417.954C681.466 414.737 682.602 411.649 684.516 409.054C685.573 407.694 686.859 406.529 688.316 405.612C688.696 405.372 689.045 405.974 688.667 406.212C686.147 407.805 684.197 410.157 683.1 412.929C681.993 416.042 681.584 419.359 681.9 422.648C682.026 424.628 682.294 426.596 682.564 428.561C682.585 428.65 682.572 428.743 682.527 428.823C682.482 428.902 682.408 428.962 682.321 428.989C682.232 429.013 682.137 429.001 682.057 428.955C681.977 428.91 681.918 428.835 681.893 428.746L681.892 428.747Z" fill="#1856F5"/>
<path d="M685.418 423.02C685.924 423.79 686.62 424.416 687.438 424.839C688.257 425.261 689.17 425.466 690.091 425.433C692.457 425.32 694.429 423.67 696.204 422.102L701.455 417.466L697.98 417.3C695.487 417.031 692.965 417.214 690.537 417.84C688.157 418.611 685.962 420.465 685.527 422.929" fill="#1856F5"/>
<path d="M680.508 430.799C682.867 426.625 685.602 421.987 690.491 420.504C691.85 420.093 693.276 419.945 694.691 420.07C695.137 420.108 695.025 420.795 694.581 420.757C692.21 420.56 689.844 421.186 687.881 422.53C686.035 423.869 684.471 425.558 683.276 427.5C682.513 428.662 681.83 429.872 681.147 431.081C680.926 431.469 680.288 431.19 680.508 430.799Z" fill="#1856F5"/>
<path d="M707.522 432.822C707.522 432.822 696.539 409.41 727.777 390.186L707.522 432.822Z" fill="#1856F5"/>
<path d="M744.364 432.548C744.364 432.548 734.987 409.467 763.117 392.156L744.364 432.548Z" fill="#1856F5"/>
<path d="M743.827 431.682C743.827 431.682 753.667 418.192 738.18 402.371L743.827 431.682Z" fill="#1856F5"/>
<path d="M763.949 416.799C765.129 417.214 766.396 417.318 767.628 417.101C768.861 416.884 770.016 416.353 770.984 415.56C773.448 413.492 774.221 410.085 774.849 406.93L776.708 397.598L772.816 400.278C770.016 402.205 767.154 404.195 765.216 406.987C763.278 409.779 762.432 413.587 763.989 416.611" fill="#1856F5"/>
<path d="M764.548 428.747C763.915 425.186 763.697 421.565 763.899 417.954C764.122 414.737 765.257 411.649 767.172 409.054C768.228 407.694 769.514 406.529 770.972 405.612C771.352 405.372 771.701 405.974 771.323 406.212C768.802 407.805 766.853 410.157 765.756 412.929C764.649 416.042 764.239 419.359 764.556 422.648C764.682 424.628 764.95 426.596 765.22 428.561C765.241 428.65 765.228 428.743 765.182 428.823C765.137 428.902 765.064 428.962 764.977 428.989C764.888 429.013 764.793 429.001 764.713 428.955C764.633 428.91 764.574 428.835 764.549 428.746L764.548 428.747Z" fill="#1856F5"/>
<path d="M768.074 423.02C768.58 423.79 769.276 424.416 770.094 424.839C770.913 425.261 771.826 425.466 772.747 425.433C775.113 425.32 777.085 423.67 778.86 422.102L784.111 417.466L780.636 417.3C778.142 417.031 775.621 417.214 773.193 417.84C770.813 418.611 768.618 420.465 768.183 422.929" fill="#1856F5"/>
<path d="M763.164 430.799C765.523 426.625 768.258 421.987 773.147 420.504C774.506 420.093 775.932 419.945 777.347 420.07C777.793 420.108 777.681 420.795 777.237 420.757C774.866 420.56 772.5 421.186 770.537 422.53C768.691 423.869 767.127 425.558 765.932 427.5C765.169 428.662 764.486 429.872 763.803 431.081C763.582 431.469 762.944 431.19 763.164 430.799Z" fill="#1856F5"/>
<path d="M481.368 432.548C481.368 432.548 471.991 409.467 500.121 392.156L481.368 432.548Z" fill="#1856F5"/>
<path d="M480.831 431.682C480.831 431.682 490.671 418.192 475.183 402.371L480.831 431.682Z" fill="#1856F5"/>
<path d="M500.953 416.799C502.133 417.214 503.4 417.318 504.632 417.101C505.865 416.884 507.02 416.353 507.988 415.56C510.452 413.492 511.225 410.085 511.853 406.93L513.712 397.598L509.82 400.278C507.02 402.205 504.158 404.195 502.22 406.987C500.282 409.779 499.436 413.587 500.993 416.611" fill="#1856F5"/>
<path d="M501.552 428.747C500.919 425.186 500.701 421.565 500.903 417.954C501.126 414.737 502.261 411.649 504.176 409.054C505.232 407.694 506.518 406.529 507.976 405.612C508.356 405.372 508.705 405.974 508.327 406.212C505.806 407.805 503.857 410.157 502.76 412.929C501.653 416.042 501.243 419.359 501.56 422.648C501.686 424.628 501.954 426.596 502.224 428.561C502.245 428.65 502.231 428.743 502.186 428.823C502.141 428.902 502.068 428.962 501.981 428.989C501.892 429.013 501.797 429.001 501.717 428.955C501.637 428.91 501.578 428.835 501.553 428.746L501.552 428.747Z" fill="#1856F5"/>
<path d="M505.078 423.02C505.584 423.79 506.28 424.416 507.098 424.839C507.917 425.261 508.83 425.466 509.751 425.433C512.117 425.32 514.089 423.67 515.864 422.102L521.115 417.466L517.64 417.3C515.146 417.031 512.625 417.214 510.197 417.84C507.817 418.611 505.622 420.465 505.187 422.929" fill="#1856F5"/>
<path d="M500.168 430.799C502.527 426.625 505.262 421.987 510.151 420.504C511.51 420.093 512.936 419.945 514.351 420.07C514.797 420.108 514.685 420.795 514.241 420.757C511.87 420.56 509.504 421.186 507.541 422.53C505.695 423.869 504.13 425.558 502.936 427.5C502.173 428.662 501.49 429.872 500.807 431.081C500.586 431.469 499.948 431.19 500.168 430.799Z" fill="#1856F5"/>
<path d="M527.182 432.822C527.182 432.822 516.199 409.41 547.437 390.186L527.182 432.822Z" fill="#1856F5"/>
<path d="M564.023 432.548C564.023 432.548 554.646 409.467 582.776 392.156L564.023 432.548Z" fill="#1856F5"/>
<path d="M563.487 431.682C563.487 431.682 573.326 418.192 557.839 402.371L563.487 431.682Z" fill="#1856F5"/>
<path d="M588.983 409.871C590.728 410.484 592.601 410.638 594.423 410.317C596.244 409.996 597.952 409.212 599.383 408.039C603.027 404.981 604.169 399.939 605.098 395.278L607.847 381.478L602.095 385.446C597.956 388.296 593.723 391.238 590.857 395.366C587.991 399.494 586.741 405.131 589.043 409.598" fill="#1856F5"/>
<path d="M589.87 427.539C589.146 422.261 588.4 416.914 588.91 411.579C589.241 406.822 590.919 402.257 593.75 398.419C595.312 396.409 597.213 394.686 599.367 393.329C599.929 392.975 600.445 393.864 599.886 394.217C596.159 396.573 593.277 400.051 591.654 404.15C590.019 408.753 589.414 413.659 589.883 418.521C590.07 421.449 590.466 424.359 590.864 427.264C590.895 427.395 590.876 427.534 590.809 427.651C590.743 427.769 590.634 427.857 590.505 427.897C590.373 427.932 590.233 427.914 590.115 427.847C589.996 427.78 589.909 427.669 589.872 427.538L589.87 427.539Z" fill="#1856F5"/>
<path d="M595.084 419.069C595.832 420.207 596.861 421.133 598.072 421.758C599.282 422.383 600.633 422.686 601.994 422.637C605.494 422.471 608.408 420.03 611.033 417.712L618.797 410.856L613.659 410.61C609.959 410.433 606.173 410.267 602.653 411.41C599.133 412.553 595.887 415.293 595.244 418.936" fill="#1856F5"/>
<path d="M587.824 430.574C591.312 424.402 595.357 417.543 602.586 415.351C604.596 414.744 606.703 414.526 608.795 414.71C609.454 414.767 609.29 415.783 608.632 415.726C605.126 415.434 601.627 416.36 598.724 418.347C595.995 420.327 593.681 422.825 591.914 425.697C590.786 427.415 589.776 429.205 588.766 430.997C588.442 431.566 587.498 431.152 587.824 430.574Z" fill="#1856F5"/>
<path d="M165.742 432.645C165.742 432.645 168.542 415.093 193.129 415.25L165.742 432.645Z" fill="#1856F5"/>
<path d="M248.398 432.645C248.398 432.645 251.198 415.093 275.785 415.25L248.398 432.645Z" fill="#1856F5"/>
<path d="M165.679 432.822C165.679 432.822 154.696 409.41 185.934 390.186L165.679 432.822Z" fill="#1856F5"/>
<path d="M202.521 432.548C202.521 432.548 193.144 409.467 221.274 392.156L202.521 432.548Z" fill="#1856F5"/>
<path d="M201.984 431.682C201.984 431.682 211.824 418.192 196.337 402.371L201.984 431.682Z" fill="#1856F5"/>
<path d="M222.106 416.799C223.287 417.214 224.554 417.318 225.786 417.101C227.018 416.884 228.174 416.353 229.141 415.56C231.605 413.492 232.378 410.085 233.006 406.93L234.865 397.598L230.973 400.278C228.173 402.205 225.311 404.195 223.373 406.987C221.435 409.779 220.589 413.587 222.146 416.611" fill="#1856F5"/>
<path d="M222.705 428.747C222.073 425.186 221.855 421.565 222.056 417.954C222.28 414.737 223.415 411.649 225.329 409.054C226.386 407.694 227.672 406.529 229.129 405.612C229.509 405.372 229.858 405.974 229.48 406.212C226.96 407.805 225.011 410.157 223.913 412.929C222.807 416.042 222.397 419.359 222.713 422.648C222.839 424.628 223.107 426.596 223.377 428.561C223.399 428.65 223.385 428.743 223.34 428.823C223.295 428.902 223.222 428.962 223.134 428.989C223.045 429.013 222.951 429.001 222.87 428.955C222.79 428.91 222.731 428.835 222.706 428.746L222.705 428.747Z" fill="#1856F5"/>
<path d="M226.231 423.02C226.738 423.79 227.433 424.416 228.252 424.839C229.07 425.261 229.984 425.466 230.904 425.433C233.27 425.32 235.242 423.67 237.017 422.102L242.268 417.466L238.793 417.3C236.3 417.031 233.779 417.214 231.35 417.84C228.97 418.611 226.775 420.465 226.34 422.929" fill="#1856F5"/>
<path d="M221.321 430.799C223.68 426.625 226.415 421.987 231.304 420.504C232.664 420.093 234.089 419.945 235.504 420.07C235.95 420.108 235.838 420.795 235.394 420.757C233.024 420.56 230.658 421.186 228.694 422.53C226.849 423.869 225.284 425.558 224.089 427.5C223.326 428.662 222.643 429.872 221.96 431.081C221.739 431.469 221.101 431.19 221.321 430.799Z" fill="#1856F5"/>
<path d="M248.335 432.822C248.335 432.822 237.352 409.41 268.59 390.186L248.335 432.822Z" fill="#1856F5"/>
<path d="M285.177 432.548C285.177 432.548 275.8 409.467 303.93 392.156L285.177 432.548Z" fill="#1856F5"/>
<path d="M284.64 431.682C284.64 431.682 294.48 418.192 278.993 402.371L284.64 431.682Z" fill="#1856F5"/>
<path d="M304.762 416.799C305.942 417.214 307.21 417.318 308.442 417.101C309.674 416.884 310.83 416.353 311.797 415.56C314.261 413.492 315.034 410.085 315.662 406.93L317.521 397.598L313.629 400.278C310.829 402.205 307.967 404.195 306.029 406.987C304.091 409.779 303.245 413.587 304.802 416.611" fill="#1856F5"/>
<path d="M305.361 428.747C304.729 425.186 304.511 421.565 304.712 417.954C304.936 414.737 306.071 411.649 307.985 409.054C309.042 407.694 310.328 406.529 311.785 405.612C312.165 405.372 312.514 405.974 312.136 406.212C309.616 407.805 307.667 410.157 306.569 412.929C305.463 416.042 305.053 419.359 305.369 422.648C305.495 424.628 305.763 426.596 306.033 428.561C306.054 428.65 306.041 428.743 305.996 428.823C305.951 428.902 305.877 428.962 305.79 428.989C305.701 429.013 305.606 429.001 305.526 428.955C305.446 428.91 305.387 428.835 305.362 428.746L305.361 428.747Z" fill="#1856F5"/>
<path d="M308.887 423.02C309.393 423.79 310.089 424.416 310.908 424.839C311.726 425.261 312.64 425.466 313.56 425.433C315.926 425.32 317.898 423.67 319.673 422.102L324.924 417.466L321.449 417.3C318.956 417.031 316.435 417.214 314.006 417.84C311.626 418.611 309.431 420.465 308.996 422.929" fill="#1856F5"/>
<path d="M303.977 430.799C306.336 426.625 309.071 421.987 313.96 420.504C315.32 420.093 316.745 419.945 318.16 420.07C318.606 420.108 318.494 420.795 318.05 420.757C315.679 420.56 313.313 421.186 311.35 422.53C309.505 423.869 307.94 425.558 306.745 427.5C305.982 428.662 305.299 429.872 304.616 431.081C304.395 431.469 303.757 431.19 303.977 430.799Z" fill="#1856F5"/>
<path d="M22.181 432.548C22.181 432.548 12.8041 409.467 40.9341 392.156L22.181 432.548Z" fill="#1856F5"/>
<path d="M21.6443 431.682C21.6443 431.682 31.4842 418.192 15.9969 402.371L21.6443 431.682Z" fill="#1856F5"/>
<path d="M41.766 416.799C42.9463 417.214 44.2136 417.318 45.4458 417.101C46.678 416.884 47.8335 416.353 48.801 415.56C51.265 413.492 52.038 410.085 52.666 406.93L54.525 397.598L50.633 400.278C47.833 402.205 44.971 404.195 43.033 406.987C41.095 409.779 40.249 413.587 41.806 416.611" fill="#1856F5"/>
<path d="M42.3651 428.747C41.7327 425.186 41.5149 421.565 41.7161 417.954C41.9396 414.737 43.0749 411.649 44.9891 409.054C46.0459 407.694 47.3318 406.529 48.7891 405.612C49.1691 405.372 49.5181 405.974 49.1401 406.212C46.6198 407.805 44.6705 410.157 43.5731 412.929C42.4664 416.042 42.0568 419.359 42.3731 422.648C42.4991 424.628 42.7671 426.596 43.0371 428.561C43.0582 428.65 43.0449 428.743 42.9998 428.823C42.9547 428.902 42.8812 428.962 42.7941 428.989C42.7051 429.013 42.6103 429.001 42.5302 428.955C42.45 428.91 42.3911 428.835 42.3661 428.746L42.3651 428.747Z" fill="#1856F5"/>
<path d="M45.8911 423.02C46.3972 423.79 47.093 424.416 47.9115 424.839C48.73 425.261 49.6435 425.466 50.5641 425.433C52.9301 425.32 54.9021 423.67 56.6771 422.102L61.9281 417.466L58.4531 417.3C55.9598 417.031 53.4384 417.214 51.0101 417.84C48.6301 418.611 46.4351 420.465 46.0001 422.929" fill="#1856F5"/>
<path d="M40.981 430.799C43.34 426.625 46.075 421.987 50.964 420.504C52.3235 420.093 53.7492 419.945 55.164 420.07C55.61 420.108 55.498 420.795 55.054 420.757C52.6833 420.56 50.3172 421.186 48.354 422.53C46.5085 423.869 44.9439 425.558 43.749 427.5C42.986 428.662 42.303 429.872 41.62 431.081C41.399 431.469 40.761 431.19 40.981 430.799Z" fill="#1856F5"/>
<path d="M67.9952 432.822C67.9952 432.822 57.0122 409.41 88.2502 390.186L67.9952 432.822Z" fill="#1856F5"/>
<path d="M104.837 432.548C104.837 432.548 95.4598 409.467 123.59 392.156L104.837 432.548Z" fill="#1856F5"/>
<path d="M104.3 431.682C104.3 431.682 114.14 418.192 98.6527 402.371L104.3 431.682Z" fill="#1856F5"/>
<path d="M129.796 409.871C131.541 410.484 133.415 410.638 135.236 410.317C137.058 409.996 138.766 409.212 140.196 408.039C143.84 404.981 144.982 399.939 145.911 395.278L148.66 381.478L142.908 385.446C138.769 388.296 134.536 391.238 131.67 395.366C128.804 399.494 127.554 405.131 129.856 409.598" fill="#1856F5"/>
<path d="M130.683 427.539C129.959 422.261 129.213 416.914 129.723 411.579C130.054 406.822 131.733 402.257 134.563 398.419C136.125 396.409 138.026 394.686 140.18 393.329C140.742 392.975 141.258 393.864 140.699 394.217C136.973 396.573 134.09 400.051 132.467 404.15C130.832 408.753 130.228 413.659 130.696 418.521C130.883 421.449 131.279 424.359 131.677 427.264C131.709 427.395 131.689 427.534 131.623 427.651C131.556 427.769 131.447 427.857 131.318 427.897C131.187 427.932 131.047 427.914 130.928 427.847C130.81 427.78 130.722 427.669 130.685 427.538L130.683 427.539Z" fill="#1856F5"/>
<path d="M135.897 419.069C136.646 420.207 137.675 421.133 138.885 421.758C140.095 422.383 141.446 422.686 142.807 422.637C146.307 422.471 149.221 420.03 151.846 417.712L159.61 410.856L154.472 410.61C150.772 410.433 146.986 410.267 143.466 411.41C139.946 412.553 136.7 415.293 136.057 418.936" fill="#1856F5"/>
<path d="M128.637 430.574C132.125 424.402 136.17 417.543 143.399 415.351C145.409 414.744 147.517 414.526 149.608 414.71C150.267 414.767 150.103 415.783 149.445 415.726C145.94 415.434 142.44 416.36 139.537 418.347C136.808 420.327 134.494 422.825 132.727 425.697C131.599 427.415 130.589 429.205 129.579 430.997C129.255 431.566 128.311 431.152 128.637 430.574Z" fill="#1856F5"/>
<path d="M502.603 219.904L510.361 213.7C504.334 213.033 501.858 216.322 500.842 218.923C496.134 216.969 491.009 219.53 491.009 219.53L506.529 225.164C505.747 223.073 504.384 221.248 502.6 219.904L502.603 219.904Z" fill="#090814"/>
<path d="M149.228 57.4192L156.986 51.2152C150.959 50.5482 148.483 53.8367 147.467 56.4382C142.759 54.4836 137.634 57.0445 137.634 57.0445L153.155 62.6793C152.372 60.5878 151.008 58.7629 149.225 57.4186L149.228 57.4192Z" fill="#090814"/>
<path d="M142.271 267.921L150.028 261.717C144.002 261.05 141.526 264.338 140.509 266.94C135.802 264.985 130.676 267.546 130.676 267.546L146.197 273.181C145.414 271.089 144.051 269.264 142.268 267.92L142.271 267.921Z" fill="#090814"/>
<path d="M394.754 325.355C394.016 325.232 393.26 325.258 392.532 325.429C391.803 325.601 391.116 325.915 390.51 326.355C389.904 326.794 389.392 327.349 389.002 327.988C388.613 328.628 388.354 329.338 388.241 330.078L386.032 344.579L393.55 346.573L399.059 333.062C399.379 332.277 399.519 331.429 399.467 330.583C399.415 329.737 399.174 328.913 398.76 328.173C398.347 327.433 397.772 326.795 397.078 326.307C396.385 325.819 395.591 325.494 394.754 325.355L394.754 325.355Z" fill="#FFB9B9"/>
<path d="M394.613 344.552C398.786 361.134 396.99 376.299 381.453 388.208C362.817 383.071 350.422 370.677 342.859 352.663C342.389 351.543 342.151 350.339 342.158 349.125C342.166 347.91 342.42 346.71 342.905 345.596C343.389 344.482 344.095 343.478 344.978 342.644C345.861 341.811 346.905 341.164 348.044 340.745C349.757 340.115 351.621 340.022 353.389 340.477C355.156 340.933 356.742 341.915 357.938 343.295L376.223 364.401L384.8 343.12L394.613 344.552Z" fill="#1856F5"/>
<path d="M490.096 431.548C473.08 430.644 462.51 424.801 459.95 412.82L462.691 407.796L494.068 422.09C494.86 422.45 495.527 423.039 495.984 423.78C496.441 424.52 496.668 425.381 496.635 426.25C496.601 427.12 496.31 427.961 495.798 428.665C495.286 429.369 494.577 429.905 493.759 430.204L490.096 431.548Z" fill="#E6E6E6"/>
<path d="M476.948 431.668C468.106 431.4 459.604 431.483 451.547 432.028C450.134 432.125 448.74 431.66 447.667 430.735C446.594 429.811 445.929 428.5 445.816 427.088L445.333 421.042L438.481 410.079L444.42 404.141C454.399 414.08 465.343 422.428 478.34 427.391C478.758 427.677 479.072 428.09 479.235 428.57C479.398 429.049 479.401 429.569 479.245 430.05C479.088 430.531 478.779 430.949 478.365 431.241C477.951 431.532 477.454 431.682 476.948 431.667L476.948 431.668Z" fill="#E6E6E6"/>
<path d="M428.89 388.611C417.6 408.812 406.498 422.431 391.889 429.721C373.922 435.651 360.788 427.794 350.552 411.678L380.246 392.037L384.585 396.377L423.912 366.45C424.873 365.54 426.154 365.046 427.477 365.076C428.8 365.105 430.057 365.655 430.977 366.607L464.521 407.796L460.41 414.647L428.89 388.611Z" fill="#090814"/>
<path opacity="0.798" d="M438.938 412.364L423.407 388.612L427.061 381.76L447.616 403.228L438.938 412.364Z" fill="#090814"/>
<path d="M353.523 349.786L336.167 343.848C338.735 339.766 339.861 334.941 339.364 330.145H353.524C352.717 337.114 352.596 343.725 353.523 349.786Z" fill="#FFB9B9"/>
<path d="M386.225 398.949C383.623 400.018 387.729 395.884 385.268 397.061C373.374 402.752 360.79 407.37 352.152 415.561C331.966 401.853 313.256 359.279 337.535 340.651C345.821 345.501 353.226 348.971 353.065 340.651L386.225 398.949Z" fill="#1856F5"/>
<path opacity="0.2" d="M380.015 373.081L371.565 370.112L354.893 383.13L347.419 356.224C346.901 354.358 346.061 355.304 344.855 356.6C343.598 355.437 342.034 354.657 340.349 354.353C338.663 354.05 336.926 354.234 335.342 354.885C333.757 355.536 332.392 356.626 331.407 358.027C330.422 359.428 329.857 361.081 329.781 362.792C328.889 382.31 334.776 398.82 349.412 411.45C368.553 407.35 376.677 394.418 380.015 377.649L379.11 377.046C379.444 375.75 379.745 374.428 380.015 373.081Z" fill="black"/>
<path d="M380.699 352.719L394.912 369.429L416.232 344.267L401.827 326.789L380.699 352.719Z" fill="#3F3D56"/>
<path d="M412.583 344.844L395.681 331.015C396.64 328.71 401.251 329.478 401.251 329.478L414.482 342.891C414.942 343.359 415.337 343.887 415.656 344.461L412.583 344.844Z" fill="#F2F2F2"/>
<path d="M413.35 343.883L394.142 328.902L372.822 361.172L392.897 374.711C394.816 375.48 396.739 374.135 396.739 374.135L416.33 344.172L413.35 343.883Z" fill="#3F3D56"/>
<path d="M396.541 333.579L396.359 333.832L408.651 342.673L408.833 342.42L396.541 333.579Z" fill="#1856F5"/>
<path d="M409.008 345.721L392.864 370.112L393.123 370.284L409.267 345.892L409.008 345.721Z" fill="#1856F5"/>
<path d="M378.102 361.235L377.917 361.486L390.975 371.093L391.16 370.842L378.102 361.235Z" fill="#1856F5"/>
<path d="M394.209 334L377.499 358.009L377.754 358.187L394.464 334.178L394.209 334Z" fill="#1856F5"/>
<path d="M399.371 329.288L399.241 329.429L414.44 343.378L414.57 343.237L399.371 329.288Z" fill="#B3B3B3"/>
<path d="M398.105 329.407L397.978 329.552L413.863 343.575L413.99 343.431L398.105 329.407Z" fill="#B3B3B3"/>
<path d="M397.11 329.687L396.987 329.835L413.474 343.574L413.597 343.426L397.11 329.687Z" fill="#B3B3B3"/>
<path d="M388.371 357.625C387.757 357.197 387.064 356.896 386.332 356.739C385.6 356.582 384.844 356.571 384.109 356.709C383.373 356.846 382.672 357.128 382.046 357.538C381.42 357.949 380.882 358.48 380.463 359.1L372.25 371.254L378.188 376.279L388.957 366.434C389.583 365.862 390.072 365.156 390.388 364.369C390.704 363.582 390.839 362.734 390.783 361.888C390.726 361.042 390.48 360.22 390.063 359.482C389.645 358.744 389.067 358.109 388.371 357.625Z" fill="#FFB9B9"/>
<path d="M380.015 374.908C376.678 391.678 368.554 404.61 349.412 408.709C334.777 396.079 328.89 379.568 329.781 360.052C329.836 358.839 330.137 357.649 330.664 356.555C331.192 355.461 331.936 354.486 332.851 353.687C333.766 352.888 334.834 352.284 335.989 351.909C337.145 351.534 338.364 351.398 339.574 351.508C341.391 351.673 343.115 352.387 344.517 353.556C345.918 354.725 346.931 356.293 347.419 358.052L354.893 384.958L371.764 369.409L380.015 374.908Z" fill="#1856F5"/>
<path d="M347.731 336.763C356.457 337.375 364.026 330.797 364.638 322.072C365.25 313.346 358.673 305.776 349.948 305.164C341.222 304.552 333.652 311.13 333.04 319.855C332.428 328.581 339.006 336.151 347.731 336.763Z" fill="#FFB9B9"/>
<path d="M324.467 313.585C332.186 314.127 338.883 308.308 339.424 300.589C339.965 292.87 334.147 286.173 326.428 285.632C318.708 285.09 312.012 290.909 311.47 298.628C310.929 306.347 316.748 313.044 324.467 313.585Z" fill="#090814"/>
<path d="M312.579 310.337C314.296 311.771 316.332 312.772 318.516 313.258C320.699 313.744 322.968 313.699 325.131 313.129C327.294 312.559 329.289 311.479 330.949 309.98C332.61 308.481 333.887 306.606 334.674 304.512C334.299 306.413 333.534 308.215 332.428 309.805C331.321 311.396 329.896 312.739 328.244 313.751C326.592 314.763 324.747 315.421 322.828 315.684C320.908 315.947 318.955 315.808 317.091 315.278C315.228 314.748 313.495 313.837 312.001 312.603C310.507 311.369 309.286 309.838 308.414 308.108C307.542 306.378 307.038 304.486 306.934 302.551C306.83 300.616 307.129 298.681 307.811 296.868C307.324 299.334 307.51 301.886 308.349 304.256C309.187 306.626 310.649 308.726 312.579 310.337Z" fill="#090814"/>
<path d="M367.738 314.219C365.604 309.681 364.799 307.792 361.839 304.91C359.222 302.365 355.848 301.436 352.931 303.468C349.677 301.767 345.952 301.189 342.335 301.822C338.719 302.456 335.412 304.266 332.93 306.972C330.448 309.678 328.929 313.127 328.608 316.785C328.288 320.443 329.185 324.104 331.16 327.2C333.134 330.296 336.076 332.653 339.527 333.905C342.979 335.157 346.748 335.235 350.248 334.125C353.748 333.015 356.784 330.781 358.883 327.768C360.983 324.756 362.029 321.135 361.859 317.467C364.282 317.3 365.315 314.39 367.738 314.219Z" fill="#090814"/>
</svg>
